M48
; DRILL file {KiCad (5.1.0)-1} date 2019/06/26 19:55:13
; FORMAT={-:-/ absolute / metric / decimal}
; #@! TF.CreationDate,2019-06-26T19:55:13+09:00
; #@! TF.GenerationSoftware,Kicad,Pcbnew,(5.1.0)-1
; #@! TF.FileFunction,Plated,1,2,PTH
FMAT,2
METRIC
T1C0.400
T2C0.813
T3C1.000
T4C1.200
T5C1.300
T6C1.500
%
G90
G05
T1
X103.0Y-132.0
X104.5Y-106.5
X107.976Y-153.03
X108.608Y-152.255
X109.0Y-101.5
X109.32Y-130.457
X110.32Y-130.475
X111.0Y-101.5
X111.0Y-103.0
X111.172Y-104.0
X111.172Y-104.0
X113.5Y-113.0
X115.451Y-97.451
X116.0Y-99.0
X116.0Y-148.5
X116.487Y-77.487
X116.487Y-94.987
X116.5Y-74.5
X116.5Y-79.5
X116.5Y-87.5
X116.5Y-90.0
X116.5Y-150.5
X116.834Y-84.834
X116.894Y-92.394
X117.5Y-150.853
X117.68Y-130.445
X118.0Y-141.5
X118.469Y-131.059
X120.5Y-127.46
X121.526Y-115.706
X122.0Y-95.0
X122.3Y-116.6
X122.3Y-120.2
X124.0Y-113.0
X124.081Y-93.919
X124.503Y-90.507
X126.189Y-148.042
X126.5Y-128.5
X127.0Y-110.5
X127.18Y-147.908
X128.0Y-109.0
X128.0Y-127.0
X128.32Y-90.997
X129.092Y-123.092
X129.32Y-91.015
X129.32Y-109.015
X129.32Y-127.015
X130.0Y-150.0
X133.0Y-130.5
X135.0Y-112.0
X135.199Y-146.388
X135.812Y-145.597
X136.68Y-126.986
X136.68Y-90.985
X136.68Y-108.985
X136.936Y-92.564
X137.049Y-128.557
X137.208Y-109.834
X142.5Y-112.0
X143.0Y-128.074
X144.762Y-132.762
X145.0Y-91.0
X145.32Y-144.997
X146.32Y-145.015
X146.762Y-114.762
X147.0Y-94.0
X147.32Y-90.997
X147.32Y-108.997
X147.32Y-126.997
X148.0Y-124.5
X148.0Y-148.575
X148.092Y-87.092
X148.092Y-105.092
X148.092Y-123.092
X148.32Y-91.015
X148.32Y-109.015
X148.32Y-127.015
X153.68Y-144.985
X154.5Y-112.0
X154.68Y-145.003
X155.0Y-132.5
X155.438Y-111.25
X155.5Y-94.05
X155.5Y-112.85
X155.5Y-130.0
X155.68Y-90.985
X155.75Y-129.0
X156.208Y-91.835
X156.287Y-109.712
X156.586Y-126.914
X157.5Y-115.0
X157.75Y-96.5
X163.5Y-87.0
X163.65Y-127.833
X164.0Y-105.0
X165.02Y-86.683
X166.0Y-84.5
X166.0Y-102.5
X166.0Y-105.0
X166.0Y-108.0
X166.32Y-120.497
X166.32Y-144.497
X167.0Y-81.0
X167.0Y-86.5
X167.0Y-99.0
X167.0Y-117.0
X167.0Y-131.0
X167.025Y-102.5
X167.32Y-84.515
X167.32Y-120.515
X167.32Y-144.515
X174.68Y-102.485
X174.68Y-144.485
X175.0Y-84.5
X175.0Y-120.5
X175.101Y-121.601
X175.208Y-103.334
X175.535Y-145.008
X175.707Y-85.207
X178.0Y-82.0
X182.0Y-78.0
X183.0Y-127.0
X183.456Y-104.953
X184.0Y-131.0
X184.68Y-126.97
X184.833Y-113.833
X185.253Y-105.207
X185.769Y-108.349
X185.769Y-126.349
X186.0Y-104.0
X186.0Y-122.0
X186.0Y-146.0
X186.1Y-144.1
X186.155Y-90.552
X186.32Y-89.515
X186.32Y-107.515
X186.32Y-125.515
X193.68Y-89.485
X193.68Y-107.485
X193.68Y-125.485
X193.68Y-143.485
X194.0Y-93.35
X194.208Y-90.334
X194.208Y-108.334
X194.208Y-126.334
X194.527Y-144.017
X195.5Y-92.0
X195.5Y-95.5
X195.5Y-114.0
X195.5Y-132.0
X201.5Y-108.0
X201.85Y-92.5
X202.0Y-129.5
X204.222Y-104.278
X204.32Y-86.497
X204.792Y-121.666
X204.792Y-139.666
X205.0Y-83.0
X205.0Y-101.0
X205.0Y-119.0
X205.32Y-86.515
X205.32Y-104.515
X205.32Y-122.515
X205.32Y-140.515
X212.68Y-86.485
X212.68Y-104.485
X212.68Y-122.485
X213.0Y-140.5
X213.208Y-87.334
X213.208Y-105.334
X213.208Y-123.334
X214.0Y-140.5
T2
X181.0Y-98.19
X181.0Y-105.81
X200.0Y-77.19
X200.0Y-84.81
X200.0Y-131.19
X200.0Y-138.81
X161.8Y-116.99
X161.8Y-124.61
X124.0Y-81.69
X124.0Y-89.31
X162.0Y-93.19
X162.0Y-100.81
X162.0Y-135.19
X162.0Y-142.81
X136.578Y-132.803
X138.422Y-140.197
X200.0Y-113.19
X200.0Y-120.81
X107.38Y-107.5
X109.92Y-107.5
X112.46Y-107.5
X115.0Y-107.5
X181.0Y-80.19
X181.0Y-87.81
X103.11Y-75.792
X103.11Y-78.332
X103.11Y-80.872
X103.11Y-83.412
X103.11Y-85.952
X103.11Y-88.492
X103.11Y-91.032
X103.11Y-93.572
X103.11Y-96.112
X103.11Y-98.652
X103.11Y-101.192
X103.11Y-103.732
X104.436Y-74.522
X104.436Y-77.062
X104.436Y-79.602
X104.436Y-82.142
X104.436Y-84.682
X104.436Y-87.222
X104.436Y-89.762
X104.436Y-92.302
X104.436Y-94.842
X104.436Y-97.382
X104.436Y-99.922
X104.436Y-102.462
X118.35Y-75.792
X118.35Y-78.332
X118.35Y-80.872
X118.35Y-83.412
X118.35Y-85.952
X118.35Y-88.492
X118.35Y-91.032
X118.35Y-93.572
X118.35Y-96.112
X118.35Y-98.652
X118.35Y-101.192
X118.35Y-103.732
X119.656Y-74.522
X119.656Y-77.062
X119.656Y-79.602
X119.656Y-82.142
X119.656Y-84.682
X119.656Y-87.222
X119.656Y-89.762
X119.656Y-92.302
X119.656Y-94.842
X119.656Y-97.382
X119.656Y-99.922
X119.656Y-102.462
X143.0Y-99.69
X143.0Y-107.31
X143.0Y-81.69
X143.0Y-89.31
X181.0Y-134.19
X181.0Y-141.81
X141.0Y-135.69
X141.0Y-143.31
X124.0Y-99.69
X124.0Y-107.31
X119.078Y-140.303
X120.922Y-147.697
X181.0Y-116.19
X181.0Y-123.81
X105.0Y-121.19
X105.0Y-128.81
X143.0Y-117.69
X143.0Y-125.31
X200.0Y-96.19
X200.0Y-103.81
X162.0Y-75.19
X162.0Y-82.81
X124.0Y-117.69
X124.0Y-125.31
T4
X152.0Y-115.6
X171.0Y-73.1
X190.0Y-78.1
X150.0Y-133.6
X190.0Y-132.1
X133.0Y-79.6
X209.0Y-111.1
X209.0Y-75.1
X171.0Y-91.1
X152.0Y-97.6
X190.0Y-114.1
X209.0Y-93.1
X133.0Y-115.6
X128.135Y-135.65
X109.7Y-140.247
X114.0Y-119.102
X171.0Y-109.1
X190.0Y-96.1
X152.0Y-79.6
X209.0Y-129.1
X133.0Y-97.6
X171.0Y-133.1
T5
X97.25Y-89.75
X97.25Y-96.25
T6
X168.46Y-91.92
X173.54Y-91.92
X174.81Y-94.46
X149.46Y-98.42
X154.54Y-98.42
X155.81Y-100.96
X187.46Y-114.92
X192.54Y-114.92
X193.81Y-117.46
X206.46Y-93.92
X211.54Y-93.92
X212.81Y-96.46
X130.46Y-116.42
X135.54Y-116.42
X136.81Y-118.96
X125.869Y-137.06
X130.798Y-135.831
X132.645Y-137.989
X107.434Y-141.657
X112.363Y-140.428
X114.209Y-142.585
X111.46Y-119.922
X116.54Y-119.922
X117.81Y-122.462
X168.46Y-109.92
X173.54Y-109.92
X174.81Y-112.46
X187.46Y-96.92
X192.54Y-96.92
X193.81Y-99.46
X149.46Y-80.42
X154.54Y-80.42
X155.81Y-82.96
X206.46Y-129.92
X211.54Y-129.92
X212.81Y-132.46
X130.46Y-98.42
X135.54Y-98.42
X136.81Y-100.96
X168.46Y-133.92
X173.54Y-133.92
X174.81Y-136.46
X149.46Y-116.42
X154.54Y-116.42
X155.81Y-118.96
X168.46Y-73.92
X173.54Y-73.92
X174.81Y-76.46
X187.46Y-78.92
X192.54Y-78.92
X193.81Y-81.46
X147.46Y-134.42
X152.54Y-134.42
X153.81Y-136.96
X187.46Y-132.92
X192.54Y-132.92
X193.81Y-135.46
X130.46Y-80.42
X135.54Y-80.42
X136.81Y-82.96
X206.46Y-111.92
X211.54Y-111.92
X212.81Y-114.46
X206.46Y-75.92
X211.54Y-75.92
X212.81Y-78.46
T3
G00X94.65Y-74.05
M15
G01X94.65Y-74.55
M16
G05
G00X94.65Y-77.05
M15
G01X94.65Y-77.55
M16
G05
G00X94.65Y-81.05
M15
G01X94.65Y-81.55
M16
G05
G00X96.4Y-82.55
M15
G01X96.4Y-83.05
M16
G05
G00X98.85Y-82.55
M15
G01X98.85Y-83.05
M16
G05
G00X100.6Y-74.05
M15
G01X100.6Y-74.55
M16
G05
G00X100.6Y-77.05
M15
G01X100.6Y-77.55
M16
G05
G00X100.6Y-81.05
M15
G01X100.6Y-81.55
M16
G05
T4
G00X146.9Y-117.6
M15
G01X146.9Y-117.6
M16
G05
G00X157.1Y-117.6
M15
G01X157.1Y-117.6
M16
G05
G00X165.9Y-75.1
M15
G01X165.9Y-75.1
M16
G05
G00X176.1Y-75.1
M15
G01X176.1Y-75.1
M16
G05
G00X184.9Y-80.1
M15
G01X184.9Y-80.1
M16
G05
G00X195.1Y-80.1
M15
G01X195.1Y-80.1
M16
G05
G00X144.9Y-135.6
M15
G01X144.9Y-135.6
M16
G05
G00X155.1Y-135.6
M15
G01X155.1Y-135.6
M16
G05
G00X184.9Y-134.1
M15
G01X184.9Y-134.1
M16
G05
G00X195.1Y-134.1
M15
G01X195.1Y-134.1
M16
G05
G00X127.9Y-81.6
M15
G01X127.9Y-81.6
M16
G05
G00X138.1Y-81.6
M15
G01X138.1Y-81.6
M16
G05
G00X203.9Y-113.1
M15
G01X203.9Y-113.1
M16
G05
G00X214.1Y-113.1
M15
G01X214.1Y-113.1
M16
G05
G00X203.9Y-77.1
M15
G01X203.9Y-77.1
M16
G05
G00X214.1Y-77.1
M15
G01X214.1Y-77.1
M16
G05
G00X165.9Y-93.1
M15
G01X165.9Y-93.1
M16
G05
G00X176.1Y-93.1
M15
G01X176.1Y-93.1
M16
G05
G00X146.9Y-99.6
M15
G01X146.9Y-99.6
M16
G05
G00X157.1Y-99.6
M15
G01X157.1Y-99.6
M16
G05
G00X184.9Y-116.1
M15
G01X184.9Y-116.1
M16
G05
G00X195.1Y-116.1
M15
G01X195.1Y-116.1
M16
G05
G00X203.9Y-95.1
M15
G01X203.9Y-95.1
M16
G05
G00X214.1Y-95.1
M15
G01X214.1Y-95.1
M16
G05
G00X127.9Y-117.6
M15
G01X127.9Y-117.6
M16
G05
G00X138.1Y-117.6
M15
G01X138.1Y-117.6
M16
G05
G00X123.671Y-138.825
M15
G01X123.671Y-138.825
M16
G05
G00X133.568Y-136.357
M15
G01X133.568Y-136.357
M16
G05
G00X105.235Y-143.421
M15
G01X105.235Y-143.421
M16
G05
G00X115.132Y-140.953
M15
G01X115.132Y-140.953
M16
G05
G00X108.9Y-121.102
M15
G01X108.9Y-121.102
M16
G05
G00X119.1Y-121.102
M15
G01X119.1Y-121.102
M16
G05
G00X165.9Y-111.1
M15
G01X165.9Y-111.1
M16
G05
G00X176.1Y-111.1
M15
G01X176.1Y-111.1
M16
G05
G00X184.9Y-98.1
M15
G01X184.9Y-98.1
M16
G05
G00X195.1Y-98.1
M15
G01X195.1Y-98.1
M16
G05
G00X146.9Y-81.6
M15
G01X146.9Y-81.6
M16
G05
G00X157.1Y-81.6
M15
G01X157.1Y-81.6
M16
G05
G00X203.9Y-131.1
M15
G01X203.9Y-131.1
M16
G05
G00X214.1Y-131.1
M15
G01X214.1Y-131.1
M16
G05
G00X127.9Y-99.6
M15
G01X127.9Y-99.6
M16
G05
G00X138.1Y-99.6
M15
G01X138.1Y-99.6
M16
G05
G00X165.9Y-135.1
M15
G01X165.9Y-135.1
M16
G05
G00X176.1Y-135.1
M15
G01X176.1Y-135.1
M16
G05
T6
G00X167.19Y-94.46
M15
G01X167.19Y-94.46
M16
G05
G00X148.19Y-100.96
M15
G01X148.19Y-100.96
M16
G05
G00X186.19Y-117.46
M15
G01X186.19Y-117.46
M16
G05
G00X205.19Y-96.46
M15
G01X205.19Y-96.46
M16
G05
G00X129.19Y-118.96
M15
G01X129.19Y-118.96
M16
G05
G00X125.251Y-139.832
M15
G01X125.251Y-139.832
M16
G05
G00X106.816Y-144.429
M15
G01X106.816Y-144.429
M16
G05
G00X110.19Y-122.462
M15
G01X110.19Y-122.462
M16
G05
G00X167.19Y-112.46
M15
G01X167.19Y-112.46
M16
G05
G00X186.19Y-99.46
M15
G01X186.19Y-99.46
M16
G05
G00X148.19Y-82.96
M15
G01X148.19Y-82.96
M16
G05
G00X205.19Y-132.46
M15
G01X205.19Y-132.46
M16
G05
G00X129.19Y-100.96
M15
G01X129.19Y-100.96
M16
G05
G00X167.19Y-136.46
M15
G01X167.19Y-136.46
M16
G05
G00X148.19Y-118.96
M15
G01X148.19Y-118.96
M16
G05
G00X167.19Y-76.46
M15
G01X167.19Y-76.46
M16
G05
G00X186.19Y-81.46
M15
G01X186.19Y-81.46
M16
G05
G00X146.19Y-136.96
M15
G01X146.19Y-136.96
M16
G05
G00X186.19Y-135.46
M15
G01X186.19Y-135.46
M16
G05
G00X129.19Y-82.96
M15
G01X129.19Y-82.96
M16
G05
G00X205.19Y-114.46
M15
G01X205.19Y-114.46
M16
G05
G00X205.19Y-78.46
M15
G01X205.19Y-78.46
M16
G05
T0
M30
