M48
; DRILL file {KiCad (5.1.0)-1} date 2019/06/26 19:55:13
; FORMAT={-:-/ absolute / metric / decimal}
; #@! TF.CreationDate,2019-06-26T19:55:13+09:00
; #@! TF.GenerationSoftware,Kicad,Pcbnew,(5.1.0)-1
; #@! TF.FileFunction,NonPlated,1,2,NPTH
FMAT,2
METRIC
T1C1.000
T2C1.200
T3C1.700
T4C1.900
T5C2.200
T6C4.000
T7C4.800
%
G90
G05
T1
X125.514Y-146.713
X135.644Y-144.187
X107.078Y-151.309
X117.208Y-148.784
X108.78Y-129.202
X119.22Y-129.202
X165.78Y-119.2
X176.22Y-119.2
X184.78Y-106.2
X195.22Y-106.2
X146.78Y-89.7
X157.22Y-89.7
X203.78Y-139.2
X214.22Y-139.2
X127.78Y-107.7
X138.22Y-107.7
X165.78Y-143.2
X176.22Y-143.2
X146.78Y-125.7
X157.22Y-125.7
X165.78Y-83.2
X176.22Y-83.2
X184.78Y-88.2
X195.22Y-88.2
X144.78Y-143.7
X155.22Y-143.7
X184.78Y-142.2
X195.22Y-142.2
X127.78Y-89.7
X138.22Y-89.7
X203.78Y-121.2
X214.22Y-121.2
X203.78Y-85.2
X214.22Y-85.2
X165.78Y-101.2
X176.22Y-101.2
X146.78Y-107.7
X157.22Y-107.7
X184.78Y-124.2
X195.22Y-124.2
X203.78Y-103.2
X214.22Y-103.2
X127.78Y-125.7
X138.22Y-125.7
T2
X96.75Y-72.5
X96.75Y-79.5
X98.5Y-72.5
X98.5Y-79.5
T3
X165.92Y-97.0
X176.08Y-97.0
X146.92Y-103.5
X157.08Y-103.5
X184.92Y-120.0
X195.08Y-120.0
X203.92Y-99.0
X214.08Y-99.0
X127.92Y-121.5
X138.08Y-121.5
X124.634Y-142.604
X134.492Y-140.146
X106.198Y-147.2
X116.056Y-144.742
X108.92Y-125.002
X119.08Y-125.002
X165.92Y-115.0
X176.08Y-115.0
X184.92Y-102.0
X195.08Y-102.0
X146.92Y-85.5
X157.08Y-85.5
X203.92Y-135.0
X214.08Y-135.0
X127.92Y-103.5
X138.08Y-103.5
X165.92Y-139.0
X176.08Y-139.0
X146.92Y-121.5
X157.08Y-121.5
X165.92Y-79.0
X176.08Y-79.0
X184.92Y-84.0
X195.08Y-84.0
X144.92Y-139.5
X155.08Y-139.5
X184.92Y-138.0
X195.08Y-138.0
X127.92Y-85.5
X138.08Y-85.5
X203.92Y-117.0
X214.08Y-117.0
X203.92Y-81.0
X214.08Y-81.0
T4
X203.5Y-81.0
X214.5Y-81.0
X165.5Y-97.0
X176.5Y-97.0
X146.5Y-103.5
X157.5Y-103.5
X184.5Y-120.0
X195.5Y-120.0
X203.5Y-99.0
X214.5Y-99.0
X127.5Y-121.5
X138.5Y-121.5
X124.226Y-142.705
X134.899Y-140.044
X105.791Y-147.302
X116.464Y-144.641
X108.5Y-125.002
X119.5Y-125.002
X165.5Y-115.0
X176.5Y-115.0
X184.5Y-102.0
X195.5Y-102.0
X146.5Y-85.5
X157.5Y-85.5
X203.5Y-135.0
X214.5Y-135.0
X127.5Y-103.5
X138.5Y-103.5
X165.5Y-139.0
X176.5Y-139.0
X146.5Y-121.5
X157.5Y-121.5
X165.5Y-79.0
X176.5Y-79.0
X184.5Y-84.0
X195.5Y-84.0
X144.5Y-139.5
X155.5Y-139.5
X184.5Y-138.0
X195.5Y-138.0
X127.5Y-85.5
X138.5Y-85.5
X203.5Y-117.0
X214.5Y-117.0
T5
X96.0Y-111.0
X118.5Y-111.0
T6
X152.0Y-121.5
X171.0Y-79.0
X190.0Y-84.0
X150.0Y-139.5
X190.0Y-138.0
X133.0Y-85.5
X209.0Y-117.0
X209.0Y-81.0
X171.0Y-97.0
X152.0Y-103.5
X190.0Y-120.0
X209.0Y-99.0
X133.0Y-121.5
X129.563Y-141.375
X111.127Y-145.971
X114.0Y-125.002
X171.0Y-115.0
X190.0Y-102.0
X152.0Y-85.5
X209.0Y-135.0
X133.0Y-103.5
X171.0Y-139.0
T7
X142.5Y-75.5
X161.25Y-112.5
X199.75Y-126.0
X107.0Y-136.0
X199.75Y-90.0
T0
M30
