G04 #@! TF.GenerationSoftware,KiCad,Pcbnew,(5.1.0)-1*
G04 #@! TF.CreationDate,2019-06-25T22:33:02+09:00*
G04 #@! TF.ProjectId,lunchbox52,6c756e63-6862-46f7-9835-322e6b696361,rev?*
G04 #@! TF.SameCoordinates,Original*
G04 #@! TF.FileFunction,Paste,Bot*
G04 #@! TF.FilePolarity,Positive*
%FSLAX46Y46*%
G04 Gerber Fmt 4.6, Leading zero omitted, Abs format (unit mm)*
G04 Created by KiCad (PCBNEW (5.1.0)-1) date 2019-06-25 22:33:02*
%MOMM*%
%LPD*%
G04 APERTURE LIST*
%ADD10R,0.950000X1.300000*%
%ADD11C,0.950000*%
%ADD12C,0.100000*%
%ADD13R,1.143000X0.635000*%
%ADD14R,1.600000X1.000000*%
%ADD15C,1.000000*%
G04 APERTURE END LIST*
D10*
X161800000Y-122575000D03*
X161800000Y-119025000D03*
X143000000Y-105275000D03*
X143000000Y-101725000D03*
X105000000Y-126775000D03*
X105000000Y-123225000D03*
D11*
X119570589Y-142277725D03*
D12*
G36*
X118952449Y-141761946D02*
G01*
X119874230Y-141532120D01*
X120188729Y-142793504D01*
X119266948Y-143023330D01*
X118952449Y-141761946D01*
X118952449Y-141761946D01*
G37*
D11*
X120429411Y-145722275D03*
D12*
G36*
X119811271Y-145206496D02*
G01*
X120733052Y-144976670D01*
X121047551Y-146238054D01*
X120125770Y-146467880D01*
X119811271Y-145206496D01*
X119811271Y-145206496D01*
G37*
D10*
X124000000Y-83725000D03*
X124000000Y-87275000D03*
X124000000Y-101725000D03*
X124000000Y-105275000D03*
X124000000Y-119725000D03*
X124000000Y-123275000D03*
D11*
X137070589Y-134777725D03*
D12*
G36*
X136452449Y-134261946D02*
G01*
X137374230Y-134032120D01*
X137688729Y-135293504D01*
X136766948Y-135523330D01*
X136452449Y-134261946D01*
X136452449Y-134261946D01*
G37*
D11*
X137929411Y-138222275D03*
D12*
G36*
X137311271Y-137706496D02*
G01*
X138233052Y-137476670D01*
X138547551Y-138738054D01*
X137625770Y-138967880D01*
X137311271Y-137706496D01*
X137311271Y-137706496D01*
G37*
D10*
X143000000Y-83725000D03*
X143000000Y-87275000D03*
X143000000Y-123275000D03*
X143000000Y-119725000D03*
X141000000Y-141275000D03*
X141000000Y-137725000D03*
X162000000Y-80775000D03*
X162000000Y-77225000D03*
X162000000Y-98775000D03*
X162000000Y-95225000D03*
X162000000Y-137225000D03*
X162000000Y-140775000D03*
X181000000Y-85775000D03*
X181000000Y-82225000D03*
X181000000Y-100225000D03*
X181000000Y-103775000D03*
X181000000Y-118225000D03*
X181000000Y-121775000D03*
X181000000Y-139775000D03*
X181000000Y-136225000D03*
X200000000Y-82775000D03*
X200000000Y-79225000D03*
X200000000Y-98225000D03*
X200000000Y-101775000D03*
X200000000Y-115225000D03*
X200000000Y-118775000D03*
X200000000Y-136775000D03*
X200000000Y-133225000D03*
D13*
X107500000Y-103999620D03*
X107500000Y-105000380D03*
X110000000Y-105000380D03*
X110000000Y-103999620D03*
X112500000Y-103999620D03*
X112500000Y-105000380D03*
X115000000Y-105000380D03*
X115000000Y-103999620D03*
D14*
X116400000Y-131335000D03*
X116400000Y-129585000D03*
X111600000Y-129585000D03*
X111600000Y-131335000D03*
D15*
X110583539Y-152862020D03*
D12*
G36*
X109928263Y-153540705D02*
G01*
X109686341Y-152570410D01*
X111238815Y-152183335D01*
X111480737Y-153153630D01*
X109928263Y-153540705D01*
X109928263Y-153540705D01*
G37*
D15*
X110160176Y-151164003D03*
D12*
G36*
X109504900Y-151842688D02*
G01*
X109262978Y-150872393D01*
X110815452Y-150485318D01*
X111057374Y-151455613D01*
X109504900Y-151842688D01*
X109504900Y-151842688D01*
G37*
D15*
X114817595Y-150002778D03*
D12*
G36*
X114162319Y-150681463D02*
G01*
X113920397Y-149711168D01*
X115472871Y-149324093D01*
X115714793Y-150294388D01*
X114162319Y-150681463D01*
X114162319Y-150681463D01*
G37*
D15*
X115240958Y-151700795D03*
D12*
G36*
X114585682Y-152379480D02*
G01*
X114343760Y-151409185D01*
X115896234Y-151022110D01*
X116138156Y-151992405D01*
X114585682Y-152379480D01*
X114585682Y-152379480D01*
G37*
D14*
X130600000Y-91875000D03*
X130600000Y-90125000D03*
X135400000Y-90125000D03*
X135400000Y-91875000D03*
X135400000Y-109875000D03*
X135400000Y-108125000D03*
X130600000Y-108125000D03*
X130600000Y-109875000D03*
X130600000Y-127875000D03*
X130600000Y-126125000D03*
X135400000Y-126125000D03*
X135400000Y-127875000D03*
D15*
X133490958Y-146950795D03*
D12*
G36*
X132835682Y-147629480D02*
G01*
X132593760Y-146659185D01*
X134146234Y-146272110D01*
X134388156Y-147242405D01*
X132835682Y-147629480D01*
X132835682Y-147629480D01*
G37*
D15*
X133067595Y-145252778D03*
D12*
G36*
X132412319Y-145931463D02*
G01*
X132170397Y-144961168D01*
X133722871Y-144574093D01*
X133964793Y-145544388D01*
X132412319Y-145931463D01*
X132412319Y-145931463D01*
G37*
D15*
X128410176Y-146414003D03*
D12*
G36*
X127754900Y-147092688D02*
G01*
X127512978Y-146122393D01*
X129065452Y-145735318D01*
X129307374Y-146705613D01*
X127754900Y-147092688D01*
X127754900Y-147092688D01*
G37*
D15*
X128833539Y-148112020D03*
D12*
G36*
X128178263Y-148790705D02*
G01*
X127936341Y-147820410D01*
X129488815Y-147433335D01*
X129730737Y-148403630D01*
X128178263Y-148790705D01*
X128178263Y-148790705D01*
G37*
D14*
X154400000Y-91875000D03*
X154400000Y-90125000D03*
X149600000Y-90125000D03*
X149600000Y-91875000D03*
X149600000Y-109875000D03*
X149600000Y-108125000D03*
X154400000Y-108125000D03*
X154400000Y-109875000D03*
X154400000Y-127875000D03*
X154400000Y-126125000D03*
X149600000Y-126125000D03*
X149600000Y-127875000D03*
X147600000Y-145875000D03*
X147600000Y-144125000D03*
X152400000Y-144125000D03*
X152400000Y-145875000D03*
X173400000Y-85375000D03*
X173400000Y-83625000D03*
X168600000Y-83625000D03*
X168600000Y-85375000D03*
X168600000Y-103375000D03*
X168600000Y-101625000D03*
X173400000Y-101625000D03*
X173400000Y-103375000D03*
X173400000Y-121375000D03*
X173400000Y-119625000D03*
X168600000Y-119625000D03*
X168600000Y-121375000D03*
X168600000Y-145375000D03*
X168600000Y-143625000D03*
X173400000Y-143625000D03*
X173400000Y-145375000D03*
X187600000Y-90375000D03*
X187600000Y-88625000D03*
X192400000Y-88625000D03*
X192400000Y-90375000D03*
X192400000Y-108375000D03*
X192400000Y-106625000D03*
X187600000Y-106625000D03*
X187600000Y-108375000D03*
X187600000Y-126375000D03*
X187600000Y-124625000D03*
X192400000Y-124625000D03*
X192400000Y-126375000D03*
X192400000Y-144375000D03*
X192400000Y-142625000D03*
X187600000Y-142625000D03*
X187600000Y-144375000D03*
X206600000Y-87375000D03*
X206600000Y-85625000D03*
X211400000Y-85625000D03*
X211400000Y-87375000D03*
X211400000Y-105375000D03*
X211400000Y-103625000D03*
X206600000Y-103625000D03*
X206600000Y-105375000D03*
X206600000Y-123375000D03*
X206600000Y-121625000D03*
X211400000Y-121625000D03*
X211400000Y-123375000D03*
X211400000Y-141375000D03*
X211400000Y-139625000D03*
X206600000Y-139625000D03*
X206600000Y-141375000D03*
M02*
