<?xml version="1.0" standalone="no"?>
 <!DOCTYPE svg PUBLIC "-//W3C//DTD SVG 1.1//EN" 
 "http://www.w3.org/Graphics/SVG/1.1/DTD/svg11.dtd"> 
<svg xmlns="http://www.w3.org/2000/svg" version="1.1" 
    width="29.7002cm" height="21.0007cm" viewBox="0 0 116930 82680 ">
<title>SVG Picture created as lunchbox52-brd.svg date 2019/06/18 21:54:31 </title>
  <desc>Picture generated by PCBNEW </desc>
<g style="fill:#000000; fill-opacity:1;stroke:#000000; stroke-opacity:1;
stroke-linecap:round; stroke-linejoin:round; "
 transform="translate(0 0) scale(1 1)">
</g>
<g style="fill:#000000; fill-opacity:0.0; 
stroke:#000000; stroke-width:-0.000393701; stroke-opacity:1; 
stroke-linecap:round; stroke-linejoin:round;">
</g>
<g style="fill:#000000; fill-opacity:0.0; 
stroke:#000000; stroke-width:39.3701; stroke-opacity:1; 
stroke-linecap:round; stroke-linejoin:round;">
</g>
<g style="fill:#000000; fill-opacity:0.0; 
stroke:#000000; stroke-width:59.0551; stroke-opacity:1; 
stroke-linecap:round; stroke-linejoin:round;">
<rect x="69685.9" y="65357.2" width="42519.7" height="12598.4" rx="0" />
</g>
<g style="fill:#000000; fill-opacity:0.0; 
stroke:#000000; stroke-width:39.3701; stroke-opacity:1; 
stroke-linecap:round; stroke-linejoin:round;">
</g>
<g style="fill:#000000; fill-opacity:0.0; 
stroke:#000000; stroke-width:59.0551; stroke-opacity:1; 
stroke-linecap:round; stroke-linejoin:round;">
<rect x="3937.01" y="3937.01" width="109056" height="74806" rx="0" />
</g>
<g style="fill:#000000; fill-opacity:0.0; 
stroke:#000000; stroke-width:39.3701; stroke-opacity:1; 
stroke-linecap:round; stroke-linejoin:round;">
</g>
<g style="fill:#000000; fill-opacity:0.0; 
stroke:#000000; stroke-width:59.0551; stroke-opacity:1; 
stroke-linecap:round; stroke-linejoin:round;">
<rect x="4724.41" y="4724.41" width="107481" height="73231.2" rx="0" />
</g>
<g style="fill:#000000; fill-opacity:0.0; 
stroke:#000000; stroke-width:39.3701; stroke-opacity:1; 
stroke-linecap:round; stroke-linejoin:round;">
</g>
<g style="fill:#000000; fill-opacity:0.0; 
stroke:#000000; stroke-width:59.0551; stroke-opacity:1; 
stroke-linecap:round; stroke-linejoin:round;">
<path d="M23622 4724
L23622 3937
" />
</g>
<g style="fill:#000000; fill-opacity:0.0; 
stroke:#000000; stroke-width:39.3701; stroke-opacity:1; 
stroke-linecap:round; stroke-linejoin:round;">
</g>
<g style="fill:#000000; fill-opacity:0.0; 
stroke:#000000; stroke-width:59.0551; stroke-opacity:1; 
stroke-linecap:round; stroke-linejoin:round;">
<path d="M43307 4724
L43307 3937
" />
</g>
<g style="fill:#000000; fill-opacity:0.0; 
stroke:#000000; stroke-width:39.3701; stroke-opacity:1; 
stroke-linecap:round; stroke-linejoin:round;">
</g>
<g style="fill:#000000; fill-opacity:0.0; 
stroke:#000000; stroke-width:59.0551; stroke-opacity:1; 
stroke-linecap:round; stroke-linejoin:round;">
<path d="M62992 4724
L62992 3937
" />
</g>
<g style="fill:#000000; fill-opacity:0.0; 
stroke:#000000; stroke-width:39.3701; stroke-opacity:1; 
stroke-linecap:round; stroke-linejoin:round;">
</g>
<g style="fill:#000000; fill-opacity:0.0; 
stroke:#000000; stroke-width:59.0551; stroke-opacity:1; 
stroke-linecap:round; stroke-linejoin:round;">
<path d="M82677 4724
L82677 3937
" />
</g>
<g style="fill:#000000; fill-opacity:0.0; 
stroke:#000000; stroke-width:39.3701; stroke-opacity:1; 
stroke-linecap:round; stroke-linejoin:round;">
</g>
<g style="fill:#000000; fill-opacity:0.0; 
stroke:#000000; stroke-width:59.0551; stroke-opacity:1; 
stroke-linecap:round; stroke-linejoin:round;">
<path d="M102362 4724
L102362 3937
" />
</g>
<g style="fill:#000000; fill-opacity:0.0; 
stroke:#000000; stroke-width:39.3701; stroke-opacity:1; 
stroke-linecap:round; stroke-linejoin:round;">
</g>
<g style="fill:#000000; fill-opacity:0.0; 
stroke:#000000; stroke-width:59.0551; stroke-opacity:1; 
stroke-linecap:round; stroke-linejoin:round;">
<path d="M14199 4562
L13906 4562
" />
<path d="M14052 4562
L14052 4050
L14004 4123
L13955 4172
L13906 4196
" />
</g>
<g style="fill:#000000; fill-opacity:0.0; 
stroke:#000000; stroke-width:39.3701; stroke-opacity:1; 
stroke-linecap:round; stroke-linejoin:round;">
</g>
<g style="fill:#000000; fill-opacity:0.0; 
stroke:#000000; stroke-width:59.0551; stroke-opacity:1; 
stroke-linecap:round; stroke-linejoin:round;">
<path d="M33591 4099
L33615 4074
L33664 4050
L33786 4050
L33835 4074
L33859 4099
L33884 4147
L33884 4196
L33859 4269
L33567 4562
L33884 4562
" />
</g>
<g style="fill:#000000; fill-opacity:0.0; 
stroke:#000000; stroke-width:39.3701; stroke-opacity:1; 
stroke-linecap:round; stroke-linejoin:round;">
</g>
<g style="fill:#000000; fill-opacity:0.0; 
stroke:#000000; stroke-width:59.0551; stroke-opacity:1; 
stroke-linecap:round; stroke-linejoin:round;">
<path d="M53252 4050
L53569 4050
L53398 4245
L53471 4245
L53520 4269
L53544 4294
L53569 4342
L53569 4464
L53544 4513
L53520 4537
L53471 4562
L53325 4562
L53276 4537
L53252 4513
" />
</g>
<g style="fill:#000000; fill-opacity:0.0; 
stroke:#000000; stroke-width:39.3701; stroke-opacity:1; 
stroke-linecap:round; stroke-linejoin:round;">
</g>
<g style="fill:#000000; fill-opacity:0.0; 
stroke:#000000; stroke-width:59.0551; stroke-opacity:1; 
stroke-linecap:round; stroke-linejoin:round;">
<path d="M73205 4221
L73205 4562
" />
<path d="M73083 4026
L72961 4391
L73278 4391
" />
</g>
<g style="fill:#000000; fill-opacity:0.0; 
stroke:#000000; stroke-width:39.3701; stroke-opacity:1; 
stroke-linecap:round; stroke-linejoin:round;">
</g>
<g style="fill:#000000; fill-opacity:0.0; 
stroke:#000000; stroke-width:59.0551; stroke-opacity:1; 
stroke-linecap:round; stroke-linejoin:round;">
<path d="M92914 4050
L92671 4050
L92646 4294
L92671 4269
L92719 4245
L92841 4245
L92890 4269
L92914 4294
L92939 4342
L92939 4464
L92914 4513
L92890 4537
L92841 4562
L92719 4562
L92671 4537
L92646 4513
" />
</g>
<g style="fill:#000000; fill-opacity:0.0; 
stroke:#000000; stroke-width:39.3701; stroke-opacity:1; 
stroke-linecap:round; stroke-linejoin:round;">
</g>
<g style="fill:#000000; fill-opacity:0.0; 
stroke:#000000; stroke-width:59.0551; stroke-opacity:1; 
stroke-linecap:round; stroke-linejoin:round;">
<path d="M112575 4050
L112477 4050
L112429 4074
L112404 4099
L112356 4172
L112331 4269
L112331 4464
L112356 4513
L112380 4537
L112429 4562
L112526 4562
L112575 4537
L112599 4513
L112624 4464
L112624 4342
L112599 4294
L112575 4269
L112526 4245
L112429 4245
L112380 4269
L112356 4294
L112331 4342
" />
</g>
<g style="fill:#000000; fill-opacity:0.0; 
stroke:#000000; stroke-width:39.3701; stroke-opacity:1; 
stroke-linecap:round; stroke-linejoin:round;">
</g>
<g style="fill:#000000; fill-opacity:0.0; 
stroke:#000000; stroke-width:59.0551; stroke-opacity:1; 
stroke-linecap:round; stroke-linejoin:round;">
<path d="M23622 77955
L23622 78742
" />
</g>
<g style="fill:#000000; fill-opacity:0.0; 
stroke:#000000; stroke-width:39.3701; stroke-opacity:1; 
stroke-linecap:round; stroke-linejoin:round;">
</g>
<g style="fill:#000000; fill-opacity:0.0; 
stroke:#000000; stroke-width:59.0551; stroke-opacity:1; 
stroke-linecap:round; stroke-linejoin:round;">
<path d="M43307 77955
L43307 78742
" />
</g>
<g style="fill:#000000; fill-opacity:0.0; 
stroke:#000000; stroke-width:39.3701; stroke-opacity:1; 
stroke-linecap:round; stroke-linejoin:round;">
</g>
<g style="fill:#000000; fill-opacity:0.0; 
stroke:#000000; stroke-width:59.0551; stroke-opacity:1; 
stroke-linecap:round; stroke-linejoin:round;">
<path d="M62992 77955
L62992 78742
" />
</g>
<g style="fill:#000000; fill-opacity:0.0; 
stroke:#000000; stroke-width:39.3701; stroke-opacity:1; 
stroke-linecap:round; stroke-linejoin:round;">
</g>
<g style="fill:#000000; fill-opacity:0.0; 
stroke:#000000; stroke-width:59.0551; stroke-opacity:1; 
stroke-linecap:round; stroke-linejoin:round;">
<path d="M82677 77955
L82677 78742
" />
</g>
<g style="fill:#000000; fill-opacity:0.0; 
stroke:#000000; stroke-width:39.3701; stroke-opacity:1; 
stroke-linecap:round; stroke-linejoin:round;">
</g>
<g style="fill:#000000; fill-opacity:0.0; 
stroke:#000000; stroke-width:59.0551; stroke-opacity:1; 
stroke-linecap:round; stroke-linejoin:round;">
<path d="M102362 77955
L102362 78742
" />
</g>
<g style="fill:#000000; fill-opacity:0.0; 
stroke:#000000; stroke-width:39.3701; stroke-opacity:1; 
stroke-linecap:round; stroke-linejoin:round;">
</g>
<g style="fill:#000000; fill-opacity:0.0; 
stroke:#000000; stroke-width:59.0551; stroke-opacity:1; 
stroke-linecap:round; stroke-linejoin:round;">
<path d="M14199 78580
L13906 78580
" />
<path d="M14052 78580
L14052 78069
L14004 78142
L13955 78190
L13906 78215
" />
</g>
<g style="fill:#000000; fill-opacity:0.0; 
stroke:#000000; stroke-width:39.3701; stroke-opacity:1; 
stroke-linecap:round; stroke-linejoin:round;">
</g>
<g style="fill:#000000; fill-opacity:0.0; 
stroke:#000000; stroke-width:59.0551; stroke-opacity:1; 
stroke-linecap:round; stroke-linejoin:round;">
<path d="M33591 78117
L33615 78093
L33664 78069
L33786 78069
L33835 78093
L33859 78117
L33884 78166
L33884 78215
L33859 78288
L33567 78580
L33884 78580
" />
</g>
<g style="fill:#000000; fill-opacity:0.0; 
stroke:#000000; stroke-width:39.3701; stroke-opacity:1; 
stroke-linecap:round; stroke-linejoin:round;">
</g>
<g style="fill:#000000; fill-opacity:0.0; 
stroke:#000000; stroke-width:59.0551; stroke-opacity:1; 
stroke-linecap:round; stroke-linejoin:round;">
<path d="M53252 78069
L53569 78069
L53398 78263
L53471 78263
L53520 78288
L53544 78312
L53569 78361
L53569 78483
L53544 78532
L53520 78556
L53471 78580
L53325 78580
L53276 78556
L53252 78532
" />
</g>
<g style="fill:#000000; fill-opacity:0.0; 
stroke:#000000; stroke-width:39.3701; stroke-opacity:1; 
stroke-linecap:round; stroke-linejoin:round;">
</g>
<g style="fill:#000000; fill-opacity:0.0; 
stroke:#000000; stroke-width:59.0551; stroke-opacity:1; 
stroke-linecap:round; stroke-linejoin:round;">
<path d="M73205 78239
L73205 78580
" />
<path d="M73083 78044
L72961 78410
L73278 78410
" />
</g>
<g style="fill:#000000; fill-opacity:0.0; 
stroke:#000000; stroke-width:39.3701; stroke-opacity:1; 
stroke-linecap:round; stroke-linejoin:round;">
</g>
<g style="fill:#000000; fill-opacity:0.0; 
stroke:#000000; stroke-width:59.0551; stroke-opacity:1; 
stroke-linecap:round; stroke-linejoin:round;">
<path d="M92914 78069
L92671 78069
L92646 78312
L92671 78288
L92719 78263
L92841 78263
L92890 78288
L92914 78312
L92939 78361
L92939 78483
L92914 78532
L92890 78556
L92841 78580
L92719 78580
L92671 78556
L92646 78532
" />
</g>
<g style="fill:#000000; fill-opacity:0.0; 
stroke:#000000; stroke-width:39.3701; stroke-opacity:1; 
stroke-linecap:round; stroke-linejoin:round;">
</g>
<g style="fill:#000000; fill-opacity:0.0; 
stroke:#000000; stroke-width:59.0551; stroke-opacity:1; 
stroke-linecap:round; stroke-linejoin:round;">
<path d="M112575 78069
L112477 78069
L112429 78093
L112404 78117
L112356 78190
L112331 78288
L112331 78483
L112356 78532
L112380 78556
L112429 78580
L112526 78580
L112575 78556
L112599 78532
L112624 78483
L112624 78361
L112599 78312
L112575 78288
L112526 78263
L112429 78263
L112380 78288
L112356 78312
L112331 78361
" />
</g>
<g style="fill:#000000; fill-opacity:0.0; 
stroke:#000000; stroke-width:39.3701; stroke-opacity:1; 
stroke-linecap:round; stroke-linejoin:round;">
</g>
<g style="fill:#000000; fill-opacity:0.0; 
stroke:#000000; stroke-width:59.0551; stroke-opacity:1; 
stroke-linecap:round; stroke-linejoin:round;">
<path d="M3937 23622
L4724 23622
" />
</g>
<g style="fill:#000000; fill-opacity:0.0; 
stroke:#000000; stroke-width:39.3701; stroke-opacity:1; 
stroke-linecap:round; stroke-linejoin:round;">
</g>
<g style="fill:#000000; fill-opacity:0.0; 
stroke:#000000; stroke-width:59.0551; stroke-opacity:1; 
stroke-linecap:round; stroke-linejoin:round;">
<path d="M3937 43307
L4724 43307
" />
</g>
<g style="fill:#000000; fill-opacity:0.0; 
stroke:#000000; stroke-width:39.3701; stroke-opacity:1; 
stroke-linecap:round; stroke-linejoin:round;">
</g>
<g style="fill:#000000; fill-opacity:0.0; 
stroke:#000000; stroke-width:59.0551; stroke-opacity:1; 
stroke-linecap:round; stroke-linejoin:round;">
<path d="M3937 62992
L4724 62992
" />
</g>
<g style="fill:#000000; fill-opacity:0.0; 
stroke:#000000; stroke-width:39.3701; stroke-opacity:1; 
stroke-linecap:round; stroke-linejoin:round;">
</g>
<g style="fill:#000000; fill-opacity:0.0; 
stroke:#000000; stroke-width:59.0551; stroke-opacity:1; 
stroke-linecap:round; stroke-linejoin:round;">
<path d="M4208 13864
L4452 13864
" />
<path d="M4160 14011
L4330 13499
L4501 14011
" />
</g>
<g style="fill:#000000; fill-opacity:0.0; 
stroke:#000000; stroke-width:39.3701; stroke-opacity:1; 
stroke-linecap:round; stroke-linejoin:round;">
</g>
<g style="fill:#000000; fill-opacity:0.0; 
stroke:#000000; stroke-width:59.0551; stroke-opacity:1; 
stroke-linecap:round; stroke-linejoin:round;">
<path d="M4367 33428
L4440 33452
L4464 33476
L4489 33525
L4489 33598
L4464 33647
L4440 33671
L4391 33696
L4196 33696
L4196 33184
L4367 33184
L4416 33208
L4440 33233
L4464 33281
L4464 33330
L4440 33379
L4416 33403
L4367 33428
L4196 33428
" />
</g>
<g style="fill:#000000; fill-opacity:0.0; 
stroke:#000000; stroke-width:39.3701; stroke-opacity:1; 
stroke-linecap:round; stroke-linejoin:round;">
</g>
<g style="fill:#000000; fill-opacity:0.0; 
stroke:#000000; stroke-width:59.0551; stroke-opacity:1; 
stroke-linecap:round; stroke-linejoin:round;">
<path d="M4489 53332
L4464 53356
L4391 53381
L4342 53381
L4269 53356
L4221 53308
L4196 53259
L4172 53161
L4172 53088
L4196 52991
L4221 52942
L4269 52893
L4342 52869
L4391 52869
L4464 52893
L4489 52918
" />
</g>
<g style="fill:#000000; fill-opacity:0.0; 
stroke:#000000; stroke-width:39.3701; stroke-opacity:1; 
stroke-linecap:round; stroke-linejoin:round;">
</g>
<g style="fill:#000000; fill-opacity:0.0; 
stroke:#000000; stroke-width:59.0551; stroke-opacity:1; 
stroke-linecap:round; stroke-linejoin:round;">
<path d="M4196 73066
L4196 72554
L4318 72554
L4391 72578
L4440 72627
L4464 72676
L4489 72773
L4489 72846
L4464 72944
L4440 72993
L4391 73041
L4318 73066
L4196 73066
" />
</g>
<g style="fill:#000000; fill-opacity:0.0; 
stroke:#000000; stroke-width:39.3701; stroke-opacity:1; 
stroke-linecap:round; stroke-linejoin:round;">
</g>
<g style="fill:#000000; fill-opacity:0.0; 
stroke:#000000; stroke-width:59.0551; stroke-opacity:1; 
stroke-linecap:round; stroke-linejoin:round;">
<path d="M112992 23622
L112205 23622
" />
</g>
<g style="fill:#000000; fill-opacity:0.0; 
stroke:#000000; stroke-width:39.3701; stroke-opacity:1; 
stroke-linecap:round; stroke-linejoin:round;">
</g>
<g style="fill:#000000; fill-opacity:0.0; 
stroke:#000000; stroke-width:59.0551; stroke-opacity:1; 
stroke-linecap:round; stroke-linejoin:round;">
<path d="M112992 43307
L112205 43307
" />
</g>
<g style="fill:#000000; fill-opacity:0.0; 
stroke:#000000; stroke-width:39.3701; stroke-opacity:1; 
stroke-linecap:round; stroke-linejoin:round;">
</g>
<g style="fill:#000000; fill-opacity:0.0; 
stroke:#000000; stroke-width:59.0551; stroke-opacity:1; 
stroke-linecap:round; stroke-linejoin:round;">
<path d="M112992 62992
L112205 62992
" />
</g>
<g style="fill:#000000; fill-opacity:0.0; 
stroke:#000000; stroke-width:39.3701; stroke-opacity:1; 
stroke-linecap:round; stroke-linejoin:round;">
</g>
<g style="fill:#000000; fill-opacity:0.0; 
stroke:#000000; stroke-width:59.0551; stroke-opacity:1; 
stroke-linecap:round; stroke-linejoin:round;">
<path d="M112477 13864
L112721 13864
" />
<path d="M112428 14011
L112599 13499
L112769 14011
" />
</g>
<g style="fill:#000000; fill-opacity:0.0; 
stroke:#000000; stroke-width:39.3701; stroke-opacity:1; 
stroke-linecap:round; stroke-linejoin:round;">
</g>
<g style="fill:#000000; fill-opacity:0.0; 
stroke:#000000; stroke-width:59.0551; stroke-opacity:1; 
stroke-linecap:round; stroke-linejoin:round;">
<path d="M112635 33428
L112708 33452
L112733 33476
L112757 33525
L112757 33598
L112733 33647
L112708 33671
L112660 33696
L112465 33696
L112465 33184
L112635 33184
L112684 33208
L112708 33233
L112733 33281
L112733 33330
L112708 33379
L112684 33403
L112635 33428
L112465 33428
" />
</g>
<g style="fill:#000000; fill-opacity:0.0; 
stroke:#000000; stroke-width:39.3701; stroke-opacity:1; 
stroke-linecap:round; stroke-linejoin:round;">
</g>
<g style="fill:#000000; fill-opacity:0.0; 
stroke:#000000; stroke-width:59.0551; stroke-opacity:1; 
stroke-linecap:round; stroke-linejoin:round;">
<path d="M112757 53332
L112733 53356
L112660 53381
L112611 53381
L112538 53356
L112489 53308
L112465 53259
L112440 53161
L112440 53088
L112465 52991
L112489 52942
L112538 52893
L112611 52869
L112660 52869
L112733 52893
L112757 52918
" />
</g>
<g style="fill:#000000; fill-opacity:0.0; 
stroke:#000000; stroke-width:39.3701; stroke-opacity:1; 
stroke-linecap:round; stroke-linejoin:round;">
</g>
<g style="fill:#000000; fill-opacity:0.0; 
stroke:#000000; stroke-width:59.0551; stroke-opacity:1; 
stroke-linecap:round; stroke-linejoin:round;">
<path d="M112465 73066
L112465 72554
L112587 72554
L112660 72578
L112708 72627
L112733 72676
L112757 72773
L112757 72846
L112733 72944
L112708 72993
L112660 73041
L112587 73066
L112465 73066
" />
</g>
<g style="fill:#000000; fill-opacity:0.0; 
stroke:#000000; stroke-width:39.3701; stroke-opacity:1; 
stroke-linecap:round; stroke-linejoin:round;">
</g>
<g style="fill:#000000; fill-opacity:0.0; 
stroke:#000000; stroke-width:59.0551; stroke-opacity:1; 
stroke-linecap:round; stroke-linejoin:round;">
<path d="M78911 76293
L78911 75703
L79051 75703
L79136 75731
L79192 75787
L79220 75843
L79248 75956
L79248 76040
L79220 76153
L79192 76209
L79136 76265
L79051 76293
L78911 76293
" />
<path d="M79754 76293
L79754 75984
L79726 75928
L79670 75899
L79557 75899
L79501 75928
" />
<path d="M79754 76265
L79698 76293
L79557 76293
L79501 76265
L79473 76209
L79473 76153
L79501 76096
L79557 76068
L79698 76068
L79754 76040
" />
<path d="M79951 75899
L80176 75899
" />
<path d="M80036 75703
L80036 76209
L80064 76265
L80120 76293
L80176 76293
" />
<path d="M80598 76265
L80542 76293
L80429 76293
L80373 76265
L80345 76209
L80345 75984
L80373 75928
L80429 75899
L80542 75899
L80598 75928
L80626 75984
L80626 76040
L80345 76096
" />
<path d="M80879 76237
L80907 76265
L80879 76293
L80851 76265
L80879 76237
L80879 76293
" />
<path d="M80879 75928
L80907 75956
L80879 75984
L80851 75956
L80879 75928
L80879 75984
" />
</g>
<g style="fill:#000000; fill-opacity:0.0; 
stroke:#000000; stroke-width:39.3701; stroke-opacity:1; 
stroke-linecap:round; stroke-linejoin:round;">
</g>
<g style="fill:#000000; fill-opacity:0.0; 
stroke:#000000; stroke-width:59.0551; stroke-opacity:1; 
stroke-linecap:round; stroke-linejoin:round;">
<path d="M69685 76577
L112205 76577
" />
</g>
<g style="fill:#000000; fill-opacity:0.0; 
stroke:#000000; stroke-width:39.3701; stroke-opacity:1; 
stroke-linecap:round; stroke-linejoin:round;">
</g>
<g style="fill:#000000; fill-opacity:0.0; 
stroke:#000000; stroke-width:59.0551; stroke-opacity:1; 
stroke-linecap:round; stroke-linejoin:round;">
<path d="M70249 77395
L70249 76805
" />
<path d="M70587 77395
L70334 77058
" />
<path d="M70587 76805
L70249 77142
" />
<path d="M70840 77395
L70840 77002
" />
<path d="M70840 76805
L70812 76833
L70840 76861
L70868 76833
L70840 76805
L70840 76861
" />
<path d="M71458 77339
L71430 77367
L71346 77395
L71290 77395
L71205 77367
L71149 77311
L71121 77255
L71093 77142
L71093 77058
L71121 76946
L71149 76889
L71205 76833
L71290 76805
L71346 76805
L71430 76833
L71458 76861
" />
<path d="M71965 77395
L71965 77086
L71937 77030
L71880 77002
L71768 77002
L71712 77030
" />
<path d="M71965 77367
L71908 77395
L71768 77395
L71712 77367
L71683 77311
L71683 77255
L71712 77199
L71768 77171
L71908 77171
L71965 77142
" />
<path d="M72499 77395
L72499 76805
" />
<path d="M72499 77367
L72443 77395
L72330 77395
L72274 77367
L72246 77339
L72218 77283
L72218 77114
L72246 77058
L72274 77030
L72330 77002
L72443 77002
L72499 77030
" />
<path d="M73230 77086
L73427 77086
" />
<path d="M73511 77395
L73230 77395
L73230 76805
L73511 76805
" />
<path d="M73764 77339
L73793 77367
L73764 77395
L73736 77367
L73764 77339
L73764 77395
" />
<path d="M74046 77395
L74046 76805
L74186 76805
L74271 76833
L74327 76889
L74355 76946
L74383 77058
L74383 77142
L74355 77255
L74327 77311
L74271 77367
L74186 77395
L74046 77395
" />
<path d="M74636 77339
L74664 77367
L74636 77395
L74608 77367
L74636 77339
L74636 77395
" />
<path d="M74889 77227
L75171 77227
" />
<path d="M74833 77395
L75030 76805
L75227 77395
" />
<path d="M75424 77339
L75452 77367
L75424 77395
L75395 77367
L75424 77339
L75424 77395
" />
<path d="M76605 77395
L76605 76805
" />
<path d="M76661 77171
L76830 77395
" />
<path d="M76830 77002
L76605 77227
" />
<path d="M77083 77395
L77083 77002
" />
<path d="M77083 76805
L77055 76833
L77083 76861
L77111 76833
L77083 76805
L77083 76861
" />
<path d="M77617 77367
L77561 77395
L77448 77395
L77392 77367
L77364 77339
L77336 77283
L77336 77114
L77364 77058
L77392 77030
L77448 77002
L77561 77002
L77617 77030
" />
<path d="M78123 77395
L78123 77086
L78095 77030
L78039 77002
L77926 77002
L77870 77030
" />
<path d="M78123 77367
L78067 77395
L77926 77395
L77870 77367
L77842 77311
L77842 77255
L77870 77199
L77926 77171
L78067 77171
L78123 77142
" />
<path d="M78658 77395
L78658 76805
" />
<path d="M78658 77367
L78601 77395
L78489 77395
L78433 77367
L78404 77339
L78376 77283
L78376 77114
L78404 77058
L78433 77030
L78489 77002
L78601 77002
L78658 77030
" />
<path d="M79557 77620
L79529 77592
L79473 77508
L79445 77452
L79417 77367
L79389 77227
L79389 77114
L79417 76974
L79445 76889
L79473 76833
L79529 76749
L79557 76721
" />
<path d="M80064 76805
L79782 76805
L79754 77086
L79782 77058
L79839 77030
L79979 77030
L80036 77058
L80064 77086
L80092 77142
L80092 77283
L80064 77339
L80036 77367
L79979 77395
L79839 77395
L79782 77367
L79754 77339
" />
<path d="M80345 77339
L80373 77367
L80345 77395
L80317 77367
L80345 77339
L80345 77395
" />
<path d="M80935 77395
L80598 77395
" />
<path d="M80767 77395
L80767 76805
L80710 76889
L80654 76946
L80598 76974
" />
<path d="M81188 77339
L81217 77367
L81188 77395
L81160 77367
L81188 77339
L81188 77395
" />
<path d="M81582 76805
L81638 76805
L81695 76833
L81723 76861
L81751 76917
L81779 77030
L81779 77171
L81751 77283
L81723 77339
L81695 77367
L81638 77395
L81582 77395
L81526 77367
L81498 77339
L81470 77283
L81442 77171
L81442 77030
L81470 76917
L81498 76861
L81526 76833
L81582 76805
" />
<path d="M81976 77620
L82004 77592
L82060 77508
L82088 77452
L82117 77367
L82145 77227
L82145 77114
L82117 76974
L82088 76889
L82060 76833
L82004 76749
L81976 76721
" />
<path d="M82426 77171
L82876 77171
" />
<path d="M83466 77395
L83129 77395
" />
<path d="M83298 77395
L83298 76805
L83241 76889
L83185 76946
L83129 76974
" />
</g>
<g style="fill:#000000; fill-opacity:0.0; 
stroke:#000000; stroke-width:39.3701; stroke-opacity:1; 
stroke-linecap:round; stroke-linejoin:round;">
</g>
<g style="fill:#000000; fill-opacity:0.0; 
stroke:#000000; stroke-width:59.0551; stroke-opacity:1; 
stroke-linecap:round; stroke-linejoin:round;">
<path d="M69685 75396
L112205 75396
" />
</g>
<g style="fill:#000000; fill-opacity:0.0; 
stroke:#000000; stroke-width:39.3701; stroke-opacity:1; 
stroke-linecap:round; stroke-linejoin:round;">
</g>
<g style="fill:#000000; fill-opacity:0.0; 
stroke:#000000; stroke-width:118.11; stroke-opacity:1; 
stroke-linecap:round; stroke-linejoin:round;">
<path d="M104099 76293
L103902 76012
" />
<path d="M103761 76293
L103761 75703
L103986 75703
L104042 75731
L104070 75759
L104099 75815
L104099 75899
L104070 75956
L104042 75984
L103986 76012
L103761 76012
" />
<path d="M104577 76265
L104520 76293
L104408 76293
L104352 76265
L104323 76209
L104323 75984
L104352 75928
L104408 75899
L104520 75899
L104577 75928
L104605 75984
L104605 76040
L104323 76096
" />
<path d="M104802 75899
L104942 76293
L105083 75899
" />
<path d="M105308 76237
L105336 76265
L105308 76293
L105280 76265
L105308 76237
L105308 76293
" />
<path d="M105308 75928
L105336 75956
L105308 75984
L105280 75956
L105308 75928
L105308 75984
" />
</g>
<g style="fill:#000000; fill-opacity:0.0; 
stroke:#000000; stroke-width:39.3701; stroke-opacity:1; 
stroke-linecap:round; stroke-linejoin:round;">
</g>
<g style="fill:#000000; fill-opacity:0.0; 
stroke:#000000; stroke-width:59.0551; stroke-opacity:1; 
stroke-linecap:round; stroke-linejoin:round;">
<path d="M70221 76265
L70305 76293
L70446 76293
L70502 76265
L70530 76237
L70559 76181
L70559 76124
L70530 76068
L70502 76040
L70446 76012
L70334 75984
L70277 75956
L70249 75928
L70221 75871
L70221 75815
L70249 75759
L70277 75731
L70334 75703
L70474 75703
L70559 75731
" />
<path d="M70812 76293
L70812 75899
" />
<path d="M70812 75703
L70784 75731
L70812 75759
L70840 75731
L70812 75703
L70812 75759
" />
<path d="M71037 75899
L71346 75899
L71037 76293
L71346 76293
" />
<path d="M71796 76265
L71740 76293
L71627 76293
L71571 76265
L71543 76209
L71543 75984
L71571 75928
L71627 75899
L71740 75899
L71796 75928
L71824 75984
L71824 76040
L71543 76096
" />
<path d="M72077 76237
L72105 76265
L72077 76293
L72049 76265
L72077 76237
L72077 76293
" />
<path d="M72077 75928
L72105 75956
L72077 75984
L72049 75956
L72077 75928
L72077 75984
" />
<path d="M72780 76124
L73061 76124
" />
<path d="M72724 76293
L72921 75703
L73118 76293
" />
<path d="M73568 75899
L73568 76293
" />
<path d="M73427 75674
L73286 76096
L73652 76096
" />
</g>
<g style="fill:#000000; fill-opacity:0.0; 
stroke:#000000; stroke-width:39.3701; stroke-opacity:1; 
stroke-linecap:round; stroke-linejoin:round;">
</g>
<g style="fill:#000000; fill-opacity:0.0; 
stroke:#000000; stroke-width:59.0551; stroke-opacity:1; 
stroke-linecap:round; stroke-linejoin:round;">
<path d="M103714 77395
L103714 76805
" />
<path d="M104248 77395
L104248 76805
" />
<path d="M104248 77367
L104192 77395
L104079 77395
L104023 77367
L103995 77339
L103967 77283
L103967 77114
L103995 77058
L104023 77030
L104079 77002
L104192 77002
L104248 77030
" />
<path d="M104529 77339
L104557 77367
L104529 77395
L104501 77367
L104529 77339
L104529 77395
" />
<path d="M104529 77030
L104557 77058
L104529 77086
L104501 77058
L104529 77030
L104529 77086
" />
<path d="M105570 77395
L105232 77395
" />
<path d="M105401 77395
L105401 76805
L105345 76889
L105289 76946
L105232 76974
" />
<path d="M106245 76777
L105739 77536
" />
<path d="M106751 77395
L106413 77395
" />
<path d="M106582 77395
L106582 76805
L106526 76889
L106470 76946
L106413 76974
" />
</g>
<g style="fill:#000000; fill-opacity:0.0; 
stroke:#000000; stroke-width:39.3701; stroke-opacity:1; 
stroke-linecap:round; stroke-linejoin:round;">
</g>
<g style="fill:#000000; fill-opacity:0.0; 
stroke:#000000; stroke-width:59.0551; stroke-opacity:1; 
stroke-linecap:round; stroke-linejoin:round;">
<path d="M69685 73821
L112205 73821
" />
</g>
<g style="fill:#000000; fill-opacity:0.0; 
stroke:#000000; stroke-width:39.3701; stroke-opacity:1; 
stroke-linecap:round; stroke-linejoin:round;">
</g>
<g style="fill:#000000; fill-opacity:0.0; 
stroke:#000000; stroke-width:157.48; stroke-opacity:1; 
stroke-linecap:round; stroke-linejoin:round;">
<path d="M70360 74099
L70810 74099
" />
<path d="M70486 74886
L70585 74099
" />
<path d="M70974 74886
L71039 74361
" />
<path d="M71072 74099
L71030 74136
L71063 74174
L71105 74136
L71072 74099
L71063 74174
" />
<path d="M71302 74361
L71602 74361
" />
<path d="M71447 74099
L71363 74774
L71391 74849
L71461 74886
L71536 74886
" />
<path d="M71911 74886
L71841 74849
L71813 74774
L71897 74099
" />
<path d="M72516 74849
L72436 74886
L72286 74886
L72216 74849
L72187 74774
L72225 74474
L72272 74399
L72352 74361
L72501 74361
L72572 74399
L72600 74474
L72591 74549
L72206 74624
" />
<path d="M72895 74811
L72928 74849
L72886 74886
L72853 74849
L72895 74811
L72886 74886
" />
<path d="M72947 74399
L72980 74436
L72937 74474
L72905 74436
L72947 74399
L72937 74474
" />
</g>
<g style="fill:#000000; fill-opacity:0.0; 
stroke:#000000; stroke-width:39.3701; stroke-opacity:1; 
stroke-linecap:round; stroke-linejoin:round;">
</g>
<g style="fill:#000000; fill-opacity:0.0; 
stroke:#000000; stroke-width:59.0551; stroke-opacity:1; 
stroke-linecap:round; stroke-linejoin:round;">
<path d="M70446 73070
L70249 73070
" />
<path d="M70249 73380
L70249 72789
L70530 72789
" />
<path d="M70755 73380
L70755 72986
" />
<path d="M70755 72789
L70727 72817
L70755 72845
L70784 72817
L70755 72789
L70755 72845
" />
<path d="M71121 73380
L71065 73352
L71037 73295
L71037 72789
" />
<path d="M71571 73352
L71515 73380
L71402 73380
L71346 73352
L71318 73295
L71318 73070
L71346 73014
L71402 72986
L71515 72986
L71571 73014
L71599 73070
L71599 73127
L71318 73183
" />
<path d="M71852 73323
L71880 73352
L71852 73380
L71824 73352
L71852 73323
L71852 73380
" />
<path d="M71852 73014
L71880 73042
L71852 73070
L71824 73042
L71852 73014
L71852 73070
" />
<path d="M72668 73380
L72611 73352
L72583 73295
L72583 72789
" />
<path d="M73146 72986
L73146 73380
" />
<path d="M72893 72986
L72893 73295
L72921 73352
L72977 73380
L73061 73380
L73118 73352
L73146 73323
" />
<path d="M73427 72986
L73427 73380
" />
<path d="M73427 73042
L73455 73014
L73511 72986
L73596 72986
L73652 73014
L73680 73070
L73680 73380
" />
<path d="M74214 73352
L74158 73380
L74046 73380
L73989 73352
L73961 73323
L73933 73267
L73933 73099
L73961 73042
L73989 73014
L74046 72986
L74158 72986
L74214 73014
" />
<path d="M74467 73380
L74467 72789
" />
<path d="M74721 73380
L74721 73070
L74692 73014
L74636 72986
L74552 72986
L74496 73014
L74467 73042
" />
<path d="M75002 73380
L75002 72789
" />
<path d="M75002 73014
L75058 72986
L75171 72986
L75227 73014
L75255 73042
L75283 73099
L75283 73267
L75255 73323
L75227 73352
L75171 73380
L75058 73380
L75002 73352
" />
<path d="M75620 73380
L75564 73352
L75536 73323
L75508 73267
L75508 73099
L75536 73042
L75564 73014
L75620 72986
L75705 72986
L75761 73014
L75789 73042
L75817 73099
L75817 73267
L75789 73323
L75761 73352
L75705 73380
L75620 73380
" />
<path d="M76014 73380
L76323 72986
" />
<path d="M76014 72986
L76323 73380
" />
<path d="M76830 72789
L76548 72789
L76520 73070
L76548 73042
L76605 73014
L76745 73014
L76802 73042
L76830 73070
L76858 73127
L76858 73267
L76830 73323
L76802 73352
L76745 73380
L76605 73380
L76548 73352
L76520 73323
" />
<path d="M77083 72845
L77111 72817
L77167 72789
L77308 72789
L77364 72817
L77392 72845
L77420 72902
L77420 72958
L77392 73042
L77055 73380
L77420 73380
" />
<path d="M77673 73323
L77701 73352
L77673 73380
L77645 73352
L77673 73323
L77673 73380
" />
<path d="M77955 73380
L77955 72789
" />
<path d="M78011 73155
L78180 73380
" />
<path d="M78180 72986
L77955 73211
" />
<path d="M78433 73380
L78433 72986
" />
<path d="M78433 72789
L78404 72817
L78433 72845
L78461 72817
L78433 72789
L78433 72845
" />
<path d="M78967 73352
L78911 73380
L78798 73380
L78742 73352
L78714 73323
L78686 73267
L78686 73099
L78714 73042
L78742 73014
L78798 72986
L78911 72986
L78967 73014
" />
<path d="M79473 73380
L79473 73070
L79445 73014
L79389 72986
L79276 72986
L79220 73014
" />
<path d="M79473 73352
L79417 73380
L79276 73380
L79220 73352
L79192 73295
L79192 73239
L79220 73183
L79276 73155
L79417 73155
L79473 73127
" />
<path d="M80007 73380
L80007 72789
" />
<path d="M80007 73352
L79951 73380
L79839 73380
L79782 73352
L79754 73323
L79726 73267
L79726 73099
L79754 73042
L79782 73014
L79839 72986
L79951 72986
L80007 73014
" />
<path d="M80148 73436
L80598 73436
" />
<path d="M80739 72986
L80739 73577
" />
<path d="M80739 73014
L80795 72986
L80907 72986
L80964 73014
L80992 73042
L81020 73099
L81020 73267
L80992 73323
L80964 73352
L80907 73380
L80795 73380
L80739 73352
" />
<path d="M81526 73352
L81470 73380
L81357 73380
L81301 73352
L81273 73323
L81245 73267
L81245 73099
L81273 73042
L81301 73014
L81357 72986
L81470 72986
L81526 73014
" />
<path d="M81779 73380
L81779 72789
" />
<path d="M81779 73014
L81835 72986
L81948 72986
L82004 73014
L82032 73042
L82060 73099
L82060 73267
L82032 73323
L82004 73352
L81948 73380
L81835 73380
L81779 73352
" />
</g>
<g style="fill:#000000; fill-opacity:0.0; 
stroke:#000000; stroke-width:39.3701; stroke-opacity:1; 
stroke-linecap:round; stroke-linejoin:round;">
</g>
<g style="fill:#000000; fill-opacity:0.0; 
stroke:#000000; stroke-width:59.0551; stroke-opacity:1; 
stroke-linecap:round; stroke-linejoin:round;">
<path d="M69685 71459
L112205 71459
" />
</g>
<g style="fill:#000000; fill-opacity:0.0; 
stroke:#000000; stroke-width:39.3701; stroke-opacity:1; 
stroke-linecap:round; stroke-linejoin:round;">
</g>
<g style="fill:#000000; fill-opacity:0.0; 
stroke:#000000; stroke-width:59.0551; stroke-opacity:1; 
stroke-linecap:round; stroke-linejoin:round;">
<path d="M70221 72289
L70305 72317
L70446 72317
L70502 72289
L70530 72260
L70559 72204
L70559 72148
L70530 72092
L70502 72064
L70446 72036
L70334 72007
L70277 71979
L70249 71951
L70221 71895
L70221 71839
L70249 71782
L70277 71754
L70334 71726
L70474 71726
L70559 71754
" />
<path d="M70812 72317
L70812 71726
" />
<path d="M71065 72317
L71065 72007
L71037 71951
L70980 71923
L70896 71923
L70840 71951
L70812 71979
" />
<path d="M71571 72289
L71515 72317
L71402 72317
L71346 72289
L71318 72232
L71318 72007
L71346 71951
L71402 71923
L71515 71923
L71571 71951
L71599 72007
L71599 72064
L71318 72120
" />
<path d="M72077 72289
L72021 72317
L71908 72317
L71852 72289
L71824 72232
L71824 72007
L71852 71951
L71908 71923
L72021 71923
L72077 71951
L72105 72007
L72105 72064
L71824 72120
" />
<path d="M72274 71923
L72499 71923
" />
<path d="M72358 71726
L72358 72232
L72386 72289
L72443 72317
L72499 72317
" />
<path d="M72696 72260
L72724 72289
L72696 72317
L72668 72289
L72696 72260
L72696 72317
" />
<path d="M72696 71951
L72724 71979
L72696 72007
L72668 71979
L72696 71951
L72696 72007
" />
</g>
<g style="fill:#000000; fill-opacity:0.0; 
stroke:#000000; stroke-width:39.3701; stroke-opacity:1; 
stroke-linecap:round; stroke-linejoin:round;">
</g>
<g style="fill:#000000; fill-opacity:0.0; 
stroke:#000000; stroke-width:59.0551; stroke-opacity:1; 
stroke-linecap:round; stroke-linejoin:round;">
<path d="M77559 75396
L77559 76577
" />
</g>
<g style="fill:#000000; fill-opacity:0.0; 
stroke:#000000; stroke-width:39.3701; stroke-opacity:1; 
stroke-linecap:round; stroke-linejoin:round;">
</g>
<g style="fill:#000000; fill-opacity:0.0; 
stroke:#000000; stroke-width:59.0551; stroke-opacity:1; 
stroke-linecap:round; stroke-linejoin:round;">
<path d="M102756 75396
L102756 77955
" />
</g>
<g style="fill:#C2C2C2; fill-opacity:0.0; 
stroke:#C2C2C2; stroke-width:59.0551; stroke-opacity:1; 
stroke-linecap:round; stroke-linejoin:round;">
<circle cx="78641.7" cy="49606.3" r="989.161" /> 
<circle cx="78641.7" cy="35433.1" r="1013.35" /> 
<circle cx="56102.4" cy="29724.4" r="969.376" /> 
<circle cx="63484.3" cy="44291.3" r="969.376" /> 
<circle cx="42224.4" cy="53543.3" r="974.36" /> 
<circle cx="46653.5" cy="43700.8" r="417.583" /> 
<circle cx="37598.4" cy="43700.8" r="417.583" /> 
<path d="M62121 61191
L61897 61214
" />
<path d="M62009 61202
L61968 60811
L61936 60871
L61903 60912
L61868 60934
" />
<path d="M62494 61152
L62270 61175
" />
<path d="M62382 61163
L62341 60772
L62309 60832
L62276 60873
L62241 60895
" />
<path d="M62807 60723
L62621 60743
L62621 60931
L62638 60910
L62673 60888
L62767 60878
L62806 60893
L62827 60910
L62849 60945
L62859 61038
L62844 61077
L62827 61098
L62792 61121
L62699 61130
L62659 61116
L62639 61099
" />
<path d="M63030 61058
L63051 61075
L63034 61095
L63014 61079
L63030 61058
L63034 61095
" />
<path d="M63348 60667
L63273 60674
L63238 60697
L63221 60718
L63190 60777
L63179 60854
L63194 61003
L63217 61038
L63238 61055
L63277 61070
L63351 61062
L63387 61040
L63403 61019
L63418 60980
L63408 60887
L63386 60851
L63365 60835
L63326 60820
L63251 60828
L63216 60850
L63199 60871
L63185 60910
" />
<path d="M63538 60685
L63555 60664
L63590 60641
L63683 60632
L63723 60646
L63743 60663
L63766 60698
L63770 60736
L63757 60794
L63556 61041
L63799 61015
" />
<path d="M64107 60719
L64135 60980
" />
<path d="M63998 60580
L63934 60869
L64177 60844
" />
<path d="M64638 60928
L64611 60667
" />
<path d="M64615 60704
L64631 60684
L64667 60661
L64723 60655
L64762 60670
L64784 60705
L64806 60910
" />
<path d="M64784 60705
L64799 60666
L64834 60644
L64890 60638
L64930 60652
L64952 60688
L64974 60893
" />
<path d="M65160 60873
L65133 60612
" />
<path d="M65137 60650
L65153 60629
L65189 60607
L65245 60601
L65284 60615
L65306 60651
L65328 60856
" />
<path d="M65306 60651
L65321 60612
L65357 60589
L65413 60583
L65452 60598
L65474 60633
L65496 60838
" />
<path d="M40996 62701
L86272 57977
" />
<path d="M40944 62204
L41020 62931
" />
<path d="M86220 57480
L86296 58206
" />
<path d="M86272 57977
L85855 58252
" />
<path d="M86272 57977
L85807 57793
" />
<path d="M40996 62701
L41461 62885
" />
<path d="M40996 62701
L41413 62426
" />
<path d="M34640 37664
L34902 37664
" />
<path d="M34490 37757
L34771 37851
L34771 37607
" />
<path d="M34640 37289
L34902 37289
" />
<path d="M34490 37382
L34771 37476
L34771 37232
" />
<path d="M34865 37082
L34883 37064
L34902 37082
L34883 37101
L34865 37082
L34902 37082
" />
<path d="M34508 36820
L34508 36782
L34527 36745
L34546 36726
L34583 36707
L34658 36689
L34752 36689
L34827 36707
L34865 36726
L34883 36745
L34902 36782
L34902 36820
L34883 36857
L34865 36876
L34827 36895
L34752 36914
L34658 36914
L34583 36895
L34546 36876
L34527 36857
L34508 36820
" />
<path d="M34508 36445
L34508 36407
L34527 36370
L34546 36351
L34583 36332
L34658 36314
L34752 36314
L34827 36332
L34865 36351
L34883 36370
L34902 36407
L34902 36445
L34883 36482
L34865 36501
L34827 36520
L34752 36539
L34658 36539
L34583 36520
L34546 36501
L34527 36482
L34508 36445
" />
<path d="M34508 36070
L34508 36032
L34527 35995
L34546 35976
L34583 35958
L34658 35939
L34752 35939
L34827 35958
L34865 35976
L34883 35995
L34902 36032
L34902 36070
L34883 36107
L34865 36126
L34827 36145
L34752 36164
L34658 36164
L34583 36145
L34546 36126
L34527 36107
L34508 36070
" />
<path d="M34902 35470
L34640 35470
" />
<path d="M34677 35470
L34658 35451
L34640 35414
L34640 35358
L34658 35320
L34696 35301
L34902 35301
" />
<path d="M34696 35301
L34658 35283
L34640 35245
L34640 35189
L34658 35151
L34696 35133
L34902 35133
" />
<path d="M34902 34945
L34640 34945
" />
<path d="M34677 34945
L34658 34926
L34640 34889
L34640 34833
L34658 34795
L34696 34776
L34902 34776
" />
<path d="M34696 34776
L34658 34758
L34640 34720
L34640 34664
L34658 34626
L34696 34608
L34902 34608
" />
<path d="M35236 44881
L35236 27559
" />
<path d="M36417 44881
L35005 44881
" />
<path d="M36417 27559
L35005 27559
" />
<path d="M35236 27559
L35467 28002
" />
<path d="M35236 27559
L35005 28002
" />
<path d="M35236 44881
L35467 44438
" />
<path d="M35236 44881
L35005 44438
" />
<path d="M94981 43972
L94981 43710
L95374 43878
" />
<path d="M94981 43597
L94981 43335
L95374 43503
" />
<path d="M95337 43185
L95356 43166
L95374 43185
L95356 43203
L95337 43185
L95374 43185
" />
<path d="M94981 42922
L94981 42885
L95000 42847
L95018 42829
L95056 42810
L95131 42791
L95224 42791
L95299 42810
L95337 42829
L95356 42847
L95374 42885
L95374 42922
L95356 42960
L95337 42979
L95299 42997
L95224 43016
L95131 43016
L95056 42997
L95018 42979
L95000 42960
L94981 42922
" />
<path d="M94981 42547
L94981 42510
L95000 42472
L95018 42454
L95056 42435
L95131 42416
L95224 42416
L95299 42435
L95337 42454
L95356 42472
L95374 42510
L95374 42547
L95356 42585
L95337 42604
L95299 42622
L95224 42641
L95131 42641
L95056 42622
L95018 42604
L95000 42585
L94981 42547
" />
<path d="M94981 42172
L94981 42135
L95000 42097
L95018 42079
L95056 42060
L95131 42041
L95224 42041
L95299 42060
L95337 42079
L95356 42097
L95374 42135
L95374 42172
L95356 42210
L95337 42229
L95299 42247
L95224 42266
L95131 42266
L95056 42247
L95018 42229
L95000 42210
L94981 42172
" />
<path d="M95374 41572
L95112 41572
" />
<path d="M95149 41572
L95131 41554
L95112 41516
L95112 41460
L95131 41422
L95168 41404
L95374 41404
" />
<path d="M95168 41404
L95131 41385
L95112 41347
L95112 41291
L95131 41254
L95168 41235
L95374 41235
" />
<path d="M95374 41047
L95112 41047
" />
<path d="M95149 41047
L95131 41029
L95112 40991
L95112 40935
L95131 40898
L95168 40879
L95374 40879
" />
<path d="M95168 40879
L95131 40860
L95112 40823
L95112 40766
L95131 40729
L95168 40710
L95374 40710
" />
<path d="M94685 57480
L94685 27165
" />
<path d="M86220 57480
L94915 57480
" />
<path d="M86220 27165
L94915 27165
" />
<path d="M94685 27165
L94915 27608
" />
<path d="M94685 27165
L94454 27608
" />
<path d="M94685 57480
L94915 57036
" />
<path d="M94685 57480
L94454 57036
" />
<path d="M36652 52581
L36398 52647
" />
<path d="M36773 52452
L36478 52433
L36539 52669
" />
<path d="M36878 52929
L36831 52747
L36645 52777
L36668 52790
L36695 52822
L36719 52912
L36710 52953
L36697 52976
L36666 53004
L36575 53027
L36534 53019
L36511 53005
L36483 52974
L36460 52883
L36468 52842
L36482 52819
" />
<path d="M36581 53200
L36568 53223
L36545 53210
L36558 53187
L36581 53200
L36545 53210
" />
<path d="M36889 53488
L36635 53554
" />
<path d="M37010 53359
L36715 53340
L36776 53575
" />
<path d="M37059 53618
L37125 53872
L36701 53808
" />
<path d="M37014 54114
L37023 54073
L37036 54050
L37067 54023
L37086 54018
L37127 54026
L37150 54040
L37177 54071
L37196 54144
L37187 54185
L37174 54208
L37143 54235
L37124 54240
L37083 54232
L37060 54218
L37033 54187
L37014 54114
L36986 54083
L36963 54069
L36922 54060
L36850 54079
L36818 54107
L36805 54130
L36796 54171
L36815 54244
L36843 54275
L36866 54288
L36907 54297
L36979 54278
L37011 54251
L37024 54228
L37033 54187
" />
<path d="M36953 54770
L37207 54703
" />
<path d="M37170 54713
L37193 54726
L37221 54758
L37235 54812
L37226 54853
L37195 54881
L36995 54933
" />
<path d="M37195 54881
L37236 54889
L37264 54921
L37278 54975
L37269 55016
L37238 55044
L37038 55096
" />
<path d="M37085 55277
L37339 55211
" />
<path d="M37303 55221
L37326 55234
L37354 55265
L37368 55320
L37359 55361
L37328 55388
L37128 55441
" />
<path d="M37328 55388
L37369 55397
L37396 55429
L37410 55483
L37402 55524
L37370 55552
L37171 55604
" />
<path d="M39694 62531
L35167 45208
" />
<path d="M40944 62204
L39471 62589
" />
<path d="M36417 44881
L34943 45266
" />
<path d="M35167 45208
L35502 45579
" />
<path d="M35167 45208
L35056 45696
" />
<path d="M39694 62531
L39806 62043
" />
<path d="M39694 62531
L39359 62160
" />
<path d="M61989 64075
L61764 64075
" />
<path d="M61876 64075
L61876 63682
L61839 63738
L61801 63775
L61764 63794
" />
<path d="M62364 64075
L62139 64075
" />
<path d="M62251 64075
L62251 63682
L62214 63738
L62176 63775
L62139 63794
" />
<path d="M62720 63682
L62532 63682
L62514 63869
L62532 63850
L62570 63832
L62664 63832
L62701 63850
L62720 63869
L62739 63907
L62739 64000
L62720 64038
L62701 64056
L62664 64075
L62570 64075
L62532 64056
L62514 64038
" />
<path d="M62907 64038
L62926 64056
L62907 64075
L62889 64056
L62907 64038
L62907 64075
" />
<path d="M63170 63682
L63207 63682
L63245 63700
L63263 63719
L63282 63757
L63301 63832
L63301 63925
L63282 64000
L63263 64038
L63245 64056
L63207 64075
L63170 64075
L63132 64056
L63113 64038
L63095 64000
L63076 63925
L63076 63832
L63095 63757
L63113 63719
L63132 63700
L63170 63682
" />
<path d="M63545 63682
L63582 63682
L63620 63700
L63638 63719
L63657 63757
L63676 63832
L63676 63925
L63657 64000
L63638 64038
L63620 64056
L63582 64075
L63545 64075
L63507 64056
L63488 64038
L63470 64000
L63451 63925
L63451 63832
L63470 63757
L63488 63719
L63507 63700
L63545 63682
" />
<path d="M63920 63682
L63957 63682
L63995 63700
L64013 63719
L64032 63757
L64051 63832
L64051 63925
L64032 64000
L64013 64038
L63995 64056
L63957 64075
L63920 64075
L63882 64056
L63863 64038
L63845 64000
L63826 63925
L63826 63832
L63845 63757
L63863 63719
L63882 63700
L63920 63682
" />
<path d="M64520 64075
L64520 63813
" />
<path d="M64520 63850
L64538 63832
L64576 63813
L64632 63813
L64670 63832
L64688 63869
L64688 64075
" />
<path d="M64688 63869
L64707 63832
L64745 63813
L64801 63813
L64838 63832
L64857 63869
L64857 64075
" />
<path d="M65044 64075
L65044 63813
" />
<path d="M65044 63850
L65063 63832
L65101 63813
L65157 63813
L65194 63832
L65213 63869
L65213 64075
" />
<path d="M65213 63869
L65232 63832
L65269 63813
L65326 63813
L65363 63832
L65382 63869
L65382 64075
" />
<path d="M40944 63385
L86220 63385
" />
<path d="M40944 62204
L40944 63616
" />
<path d="M86220 62204
L86220 63616
" />
<path d="M86220 63385
L85776 63616
" />
<path d="M86220 63385
L85776 63154
" />
<path d="M40944 63385
L41388 63616
" />
<path d="M40944 63385
L41388 63154
" />
<path d="M32905 46241
L32887 46278
L32868 46297
L32830 46316
L32812 46316
L32774 46297
L32755 46278
L32737 46241
L32737 46166
L32755 46128
L32774 46109
L32812 46091
L32830 46091
L32868 46109
L32887 46128
L32905 46166
L32905 46241
L32924 46278
L32943 46297
L32980 46316
L33055 46316
L33093 46297
L33112 46278
L33130 46241
L33130 46166
L33112 46128
L33093 46109
L33055 46091
L32980 46091
L32943 46109
L32924 46128
L32905 46166
" />
<path d="M33130 45903
L33130 45828
L33112 45791
L33093 45772
L33037 45734
L32962 45716
L32812 45716
L32774 45734
L32755 45753
L32737 45791
L32737 45866
L32755 45903
L32774 45922
L32812 45941
L32905 45941
L32943 45922
L32962 45903
L32980 45866
L32980 45791
L32962 45753
L32943 45734
L32905 45716
" />
<path d="M33093 45547
L33112 45528
L33130 45547
L33112 45566
L33093 45547
L33130 45547
" />
<path d="M32737 45284
L32737 45247
L32755 45209
L32774 45191
L32812 45172
L32887 45153
L32980 45153
L33055 45172
L33093 45191
L33112 45209
L33130 45247
L33130 45284
L33112 45322
L33093 45341
L33055 45359
L32980 45378
L32887 45378
L32812 45359
L32774 45341
L32755 45322
L32737 45284
" />
<path d="M32737 44910
L32737 44872
L32755 44835
L32774 44816
L32812 44797
L32887 44778
L32980 44778
L33055 44797
L33093 44816
L33112 44835
L33130 44872
L33130 44910
L33112 44947
L33093 44966
L33055 44985
L32980 45003
L32887 45003
L32812 44985
L32774 44966
L32755 44947
L32737 44910
" />
<path d="M32737 44535
L32737 44497
L32755 44460
L32774 44441
L32812 44422
L32887 44403
L32980 44403
L33055 44422
L33093 44441
L33112 44460
L33130 44497
L33130 44535
L33112 44572
L33093 44591
L33055 44610
L32980 44628
L32887 44628
L32812 44610
L32774 44591
L32755 44572
L32737 44535
" />
<path d="M33130 43935
L32868 43935
" />
<path d="M32905 43935
L32887 43916
L32868 43878
L32868 43822
L32887 43785
L32924 43766
L33130 43766
" />
<path d="M32924 43766
L32887 43747
L32868 43710
L32868 43653
L32887 43616
L32924 43597
L33130 43597
" />
<path d="M33130 43410
L32868 43410
" />
<path d="M32905 43410
L32887 43391
L32868 43353
L32868 43297
L32887 43260
L32924 43241
L33130 43241
" />
<path d="M32924 43241
L32887 43222
L32868 43185
L32868 43128
L32887 43091
L32924 43072
L33130 43072
" />
<path d="M33464 62204
L33464 27165
" />
<path d="M40944 62204
L33233 62204
" />
<path d="M40944 27165
L33233 27165
" />
<path d="M33464 27165
L33695 27608
" />
<path d="M33464 27165
L33233 27608
" />
<path d="M33464 62204
L33695 61761
" />
<path d="M33464 62204
L33233 61761
" />
<path d="M59725 18170
L59500 18170
" />
<path d="M59612 18170
L59612 17776
L59575 17832
L59537 17870
L59500 17889
" />
<path d="M59875 17814
L59894 17795
L59931 17776
L60025 17776
L60062 17795
L60081 17814
L60100 17851
L60100 17889
L60081 17945
L59856 18170
L60100 18170
" />
<path d="M60437 17776
L60362 17776
L60325 17795
L60306 17814
L60269 17870
L60250 17945
L60250 18095
L60269 18132
L60287 18151
L60325 18170
L60400 18170
L60437 18151
L60456 18132
L60475 18095
L60475 18001
L60456 17964
L60437 17945
L60400 17926
L60325 17926
L60287 17945
L60269 17964
L60250 18001
" />
<path d="M60643 18132
L60662 18151
L60643 18170
L60625 18151
L60643 18132
L60643 18170
" />
<path d="M61018 17776
L60831 17776
L60812 17964
L60831 17945
L60868 17926
L60962 17926
L61000 17945
L61018 17964
L61037 18001
L61037 18095
L61018 18132
L61000 18151
L60962 18170
L60868 18170
L60831 18151
L60812 18132
" />
<path d="M61281 17776
L61318 17776
L61356 17795
L61375 17814
L61393 17851
L61412 17926
L61412 18020
L61393 18095
L61375 18132
L61356 18151
L61318 18170
L61281 18170
L61243 18151
L61225 18132
L61206 18095
L61187 18020
L61187 17926
L61206 17851
L61225 17814
L61243 17795
L61281 17776
" />
<path d="M61656 17776
L61693 17776
L61731 17795
L61750 17814
L61768 17851
L61787 17926
L61787 18020
L61768 18095
L61750 18132
L61731 18151
L61693 18170
L61656 18170
L61618 18151
L61600 18132
L61581 18095
L61562 18020
L61562 17926
L61581 17851
L61600 17814
L61618 17795
L61656 17776
" />
<path d="M62256 18170
L62256 17907
" />
<path d="M62256 17945
L62275 17926
L62312 17907
L62368 17907
L62406 17926
L62425 17964
L62425 18170
" />
<path d="M62425 17964
L62443 17926
L62481 17907
L62537 17907
L62574 17926
L62593 17964
L62593 18170
" />
<path d="M62781 18170
L62781 17907
" />
<path d="M62781 17945
L62799 17926
L62837 17907
L62893 17907
L62931 17926
L62949 17964
L62949 18170
" />
<path d="M62949 17964
L62968 17926
L63006 17907
L63062 17907
L63099 17926
L63118 17964
L63118 18170
" />
<path d="M36417 18503
L86220 18503
" />
<path d="M36417 27165
L36417 18273
" />
<path d="M86220 27165
L86220 18273
" />
<path d="M86220 18503
L85776 18734
" />
<path d="M86220 18503
L85776 18273
" />
<path d="M36417 18503
L36860 18734
" />
<path d="M36417 18503
L36860 18273
" />
<path d="M38976 27165
L36417 27165
" />
<path d="M48031 44881
L36417 44881
" />
<path d="M48031 27165
L48031 44881
" />
</g>
<g style="fill:#C2C2C2; fill-opacity:0.0; 
stroke:#C2C2C2; stroke-width:118.11; stroke-opacity:1; 
stroke-linecap:round; stroke-linejoin:round;">
<path d="M56842 44834
L62842 44834
" />
<path d="M62842 44834
L62842 50834
" />
<path d="M62842 50834
L56842 50834
" />
<path d="M56842 50834
L56842 44834
" />
<path d="M41881 46228
L47881 46228
" />
<path d="M47881 46228
L47881 52228
" />
<path d="M47881 52228
L41881 52228
" />
<path d="M41881 52228
L41881 46228
" />
<path d="M41565 61105
L40114 55283
" />
<path d="M47387 59654
L41565 61105
" />
<path d="M45935 53832
L47387 59654
" />
<path d="M40114 55283
L45935 53832
" />
<path d="M49362 30661
L55362 30661
" />
<path d="M55362 30661
L55362 36661
" />
<path d="M55362 36661
L49362 36661
" />
<path d="M49362 36661
L49362 30661
" />
<path d="M49362 43748
L49362 37748
" />
<path d="M55362 43748
L49362 43748
" />
<path d="M55362 37748
L55362 43748
" />
<path d="M49362 37748
L55362 37748
" />
<path d="M49362 44834
L55362 44834
" />
<path d="M55362 44834
L55362 50834
" />
<path d="M55362 50834
L49362 50834
" />
<path d="M49362 50834
L49362 44834
" />
<path d="M48823 59296
L47372 53474
" />
<path d="M54645 57844
L48823 59296
" />
<path d="M53194 52022
L54645 57844
" />
<path d="M47372 53474
L53194 52022
" />
<path d="M56842 30661
L62842 30661
" />
<path d="M62842 30661
L62842 36661
" />
<path d="M62842 36661
L56842 36661
" />
<path d="M56842 36661
L56842 30661
" />
<path d="M56842 43748
L56842 37748
" />
<path d="M62842 43748
L56842 43748
" />
<path d="M62842 37748
L62842 43748
" />
<path d="M56842 37748
L62842 37748
" />
<path d="M56055 57921
L56055 51921
" />
<path d="M62055 57921
L56055 57921
" />
<path d="M62055 51921
L62055 57921
" />
<path d="M56055 51921
L62055 51921
" />
<path d="M64322 28102
L70322 28102
" />
<path d="M70322 28102
L70322 34102
" />
<path d="M70322 34102
L64322 34102
" />
<path d="M64322 34102
L64322 28102
" />
<path d="M64322 41188
L64322 35188
" />
<path d="M70322 41188
L64322 41188
" />
<path d="M70322 35188
L70322 41188
" />
<path d="M64322 35188
L70322 35188
" />
<path d="M64322 48275
L64322 42275
" />
<path d="M70322 48275
L64322 48275
" />
<path d="M70322 42275
L70322 48275
" />
<path d="M64322 42275
L70322 42275
" />
<path d="M64322 51724
L70322 51724
" />
<path d="M70322 51724
L70322 57724
" />
<path d="M70322 57724
L64322 57724
" />
<path d="M64322 57724
L64322 51724
" />
<path d="M71803 30070
L77803 30070
" />
<path d="M77803 30070
L77803 36070
" />
<path d="M77803 36070
L71803 36070
" />
<path d="M71803 36070
L71803 30070
" />
<path d="M71803 43157
L71803 37157
" />
<path d="M77803 43157
L71803 43157
" />
<path d="M77803 37157
L77803 43157
" />
<path d="M71803 37157
L77803 37157
" />
<path d="M71803 44244
L77803 44244
" />
<path d="M77803 44244
L77803 50244
" />
<path d="M77803 50244
L71803 50244
" />
<path d="M71803 50244
L71803 44244
" />
<path d="M71803 57330
L71803 51330
" />
<path d="M77803 57330
L71803 57330
" />
<path d="M77803 51330
L77803 57330
" />
<path d="M71803 51330
L77803 51330
" />
<path d="M79283 28889
L85283 28889
" />
<path d="M85283 28889
L85283 34889
" />
<path d="M85283 34889
L79283 34889
" />
<path d="M79283 34889
L79283 28889
" />
<path d="M79283 41976
L79283 35976
" />
<path d="M85283 41976
L79283 41976
" />
<path d="M85283 35976
L85283 41976
" />
<path d="M79283 35976
L85283 35976
" />
<path d="M79283 49062
L79283 43062
" />
<path d="M85283 49062
L79283 49062
" />
<path d="M85283 43062
L85283 49062
" />
<path d="M79283 43062
L85283 43062
" />
<path d="M79283 50149
L85283 50149
" />
<path d="M85283 50149
L85283 56149
" />
<path d="M85283 56149
L79283 56149
" />
<path d="M79283 56149
L79283 50149
" />
<g >
</g>
<g >
</g>
<g >
</g>
<g >
</g>
<g >
</g>
<g >
</g>
<g >
</g>
<g >
</g>
<g >
</g>
<g >
</g>
<g >
</g>
<g >
</g>
<g >
</g>
<g >
</g>
<g >
</g>
<g >
</g>
<g >
</g>
<g >
</g>
<g >
</g>
<g >
</g>
<g >
</g>
<g >
</g>
<g >
</g>
<g >
</g>
<g >
</g>
<g >
</g>
<g >
</g>
<g >
</g>
<g >
</g>
<g >
</g>
<g >
</g>
<g >
</g>
<g >
</g>
<g >
</g>
<g >
</g>
<g >
</g>
<g >
</g>
<g >
</g>
<g >
</g>
<g >
</g>
<g >
</g>
<g >
</g>
<g >
</g>
<g >
</g>
<g >
</g>
<g >
</g>
<g >
</g>
<g >
</g>
<g >
</g>
<g >
</g>
<g >
</g>
<g >
</g>
<g >
</g>
<g >
</g>
<g >
</g>
<g >
</g>
<g >
</g>
<g >
</g>
<g >
</g>
<g >
</g>
<g >
</g>
<g >
</g>
<g >
</g>
<g >
</g>
<g >
</g>
<g >
</g>
<g >
</g>
<g >
</g>
<g >
</g>
<g >
</g>
<g >
</g>
<g >
</g>
<g >
</g>
<g >
</g>
<g >
</g>
<g >
</g>
<g >
</g>
<g >
</g>
<g >
</g>
<g >
</g>
<g >
</g>
<g >
</g>
<g >
</g>
<g >
</g>
<g >
</g>
<g >
</g>
</g>
<g style="fill:#000000; fill-opacity:0.0; 
stroke:#000000; stroke-width:118.11; stroke-opacity:1; 
stroke-linecap:round; stroke-linejoin:round;">
</g>
<g style="fill:#C2C200; fill-opacity:0.0; 
stroke:#C2C200; stroke-width:118.11; stroke-opacity:1; 
stroke-linecap:round; stroke-linejoin:round;">
</g>
<g style="fill:#C2C200; fill-opacity:0.0; 
stroke:#C2C200; stroke-width:19.685; stroke-opacity:1; 
stroke-linecap:round; stroke-linejoin:round;">
<circle cx="86220.5" cy="27165.4" r="656.168" /> 
<path d="M85236 27165
L87204 27165
" />
<path d="M86220 26181
L86220 28149
" />
<path d="M53051.2 35039.4 A98.4252 98.4252 0.0 0 0 52952.8 34940.9 " />
<path d="M52952.8 36712.6 A98.4252 98.4252 0.0 0 0 53051.2 36614.2 " />
<path d="M51673.2 36614.2 A98.4252 98.4252 0.0 0 0 51771.7 36712.6 " />
<path d="M51771.7 34940.9 A98.4252 98.4252 0.0 0 0 51673.2 35039.4 " />
<path d="M48425.2 27165.4 A393.701 393.701 0.0 0 0 48031.5 27559.1 " />
<path d="M37007 27559
L48031 27559
" />
<path d="M40787.4 61614.2 A797.183 797.183 0.0 0 0 41614.8 62131.8 " />
<path d="M85472.4 57559.1 A788.385 788.385 0.0 0 0 86221.5 56771.7 " />
<path d="M81594 56200
L81594 54429
" />
<path d="M82972 56200
L81594 56200
" />
<path d="M82972 54429
L82972 56200
" />
<path d="M81594 54429
L82972 54429
" />
<path d="M81594 49114
L81594 47342
" />
<path d="M82972 49114
L81594 49114
" />
<path d="M82972 47342
L82972 49114
" />
<path d="M81594 47342
L82972 47342
" />
<path d="M81594 42027
L81594 40255
" />
<path d="M82972 42027
L81594 42027
" />
<path d="M82972 40255
L82972 42027
" />
<path d="M81594 40255
L82972 40255
" />
<path d="M81594 34940
L81594 33169
" />
<path d="M82972 34940
L81594 34940
" />
<path d="M82972 33169
L82972 34940
" />
<path d="M81594 33169
L82972 33169
" />
<path d="M74114 57381
L74114 55610
" />
<path d="M75492 57381
L74114 57381
" />
<path d="M75492 55610
L75492 57381
" />
<path d="M74114 55610
L75492 55610
" />
<path d="M74114 50295
L74114 48523
" />
<path d="M75492 50295
L74114 50295
" />
<path d="M75492 48523
L75492 50295
" />
<path d="M74114 48523
L75492 48523
" />
<path d="M74114 43208
L74114 41437
" />
<path d="M75492 43208
L74114 43208
" />
<path d="M75492 41437
L75492 43208
" />
<path d="M74114 41437
L75492 41437
" />
<path d="M74114 36122
L74114 34350
" />
<path d="M75492 36122
L74114 36122
" />
<path d="M75492 34350
L75492 36122
" />
<path d="M74114 34350
L75492 34350
" />
<path d="M66633 57775
L66633 56003
" />
<path d="M68011 57775
L66633 57775
" />
<path d="M68011 56003
L68011 57775
" />
<path d="M66633 56003
L68011 56003
" />
<path d="M66633 48326
L66633 46555
" />
<path d="M68011 48326
L66633 48326
" />
<path d="M68011 46555
L68011 48326
" />
<path d="M66633 46555
L68011 46555
" />
<path d="M66633 41240
L66633 39468
" />
<path d="M68011 41240
L66633 41240
" />
<path d="M68011 39468
L68011 41240
" />
<path d="M66633 39468
L68011 39468
" />
<path d="M66633 34153
L66633 32381
" />
<path d="M68011 34153
L66633 34153
" />
<path d="M68011 32381
L68011 34153
" />
<path d="M66633 32381
L68011 32381
" />
<path d="M58366 57972
L58366 56200
" />
<path d="M59744 57972
L58366 57972
" />
<path d="M59744 56200
L59744 57972
" />
<path d="M58366 56200
L59744 56200
" />
<path d="M59153 50885
L59153 49114
" />
<path d="M60531 50885
L59153 50885
" />
<path d="M60531 49114
L60531 50885
" />
<path d="M59153 49114
L60531 49114
" />
<path d="M59153 43799
L59153 42027
" />
<path d="M60531 43799
L59153 43799
" />
<path d="M60531 42027
L60531 43799
" />
<path d="M59153 42027
L60531 42027
" />
<path d="M59153 36712
L59153 34940
" />
<path d="M60531 36712
L59153 36712
" />
<path d="M60531 34940
L60531 36712
" />
<path d="M59153 34940
L60531 34940
" />
<path d="M51673 50885
L51673 49114
" />
<path d="M53051 50885
L51673 50885
" />
<path d="M53051 49114
L53051 50885
" />
<path d="M51673 49114
L53051 49114
" />
<path d="M51673 43799
L51673 42027
" />
<path d="M53051 43799
L51673 43799
" />
<path d="M53051 42027
L53051 43799
" />
<path d="M51673 42027
L53051 42027
" />
<path d="M51101 58775
L50672 57056
" />
<path d="M52438 58441
L51101 58775
" />
<path d="M52009 56722
L52438 58441
" />
<path d="M50672 57056
L52009 56722
" />
<path d="M43916 60645
L43487 58926
" />
<path d="M45253 60311
L43916 60645
" />
<path d="M44824 58592
L45253 60311
" />
<path d="M43487 58926
L44824 58592
" />
<path d="M44192 52263
L44192 50492
" />
<path d="M45570 52263
L44192 52263
" />
<path d="M45570 50492
L45570 52263
" />
<path d="M44192 50492
L45570 50492
" />
<path d="M51673 36614
L51673 35039
" />
<path d="M52952 36712
L51771 36712
" />
<path d="M53051 35039
L53051 36614
" />
<path d="M51771 34940
L52952 34940
" />
<path d="M37007.9 27559.1 A590.551 590.551 0.0 0 0 36417.3 28149.6 " />
<path d="M86220.5 27952.8 A787.402 787.402 0.0 0 0 85433.1 27165.4 " />
<path d="M48425 27165
L85433 27165
" />
<path d="M36417 44881
L36417 28149
" />
<path d="M40787 61614
L36417 44881
" />
<path d="M85472 57559
L41614 62131
" />
<path d="M86220 27952
L86221 56771
" />
<g >
</g>
<g >
</g>
<g >
</g>
<g >
</g>
<g >
</g>
<g >
</g>
<g >
</g>
<g >
</g>
<g >
</g>
<g >
</g>
<g >
</g>
<g >
</g>
<g >
</g>
<g >
</g>
<g >
</g>
<g >
</g>
<g >
</g>
<g >
</g>
<g >
</g>
<g >
</g>
<g >
</g>
<g >
</g>
<g >
</g>
<g >
</g>
<g >
</g>
<g >
</g>
<g >
</g>
<g >
</g>
<g >
</g>
<g >
</g>
<g >
</g>
<g >
</g>
<g >
</g>
<g >
</g>
<g >
</g>
<g >
</g>
<g >
</g>
<g >
</g>
<g >
</g>
<g >
</g>
<g >
</g>
<g >
</g>
<g >
</g>
<g >
</g>
<g >
</g>
<g >
</g>
<g >
</g>
<g >
</g>
<g >
</g>
<g >
</g>
<g >
</g>
<g >
</g>
<g >
</g>
<g >
</g>
<g >
</g>
<g >
</g>
<g >
</g>
<g >
</g>
<g >
</g>
<g >
</g>
<g >
</g>
<g >
</g>
<g >
</g>
<g >
</g>
<g >
</g>
<g >
</g>
<g >
</g>
<g >
</g>
<g >
</g>
<g >
</g>
<g >
</g>
<g >
</g>
<g >
</g>
<g >
</g>
<g >
</g>
<g >
</g>
<g >
</g>
<g >
</g>
<g >
</g>
<g >
</g>
<g >
</g>
<g >
</g>
<g >
</g>
<g >
</g>
<g >
</g>
<g >
</g>
</g> 
</svg>
