G04 #@! TF.GenerationSoftware,KiCad,Pcbnew,(5.1.0)-1*
G04 #@! TF.CreationDate,2019-06-25T22:33:04+09:00*
G04 #@! TF.ProjectId,lunchbox52,6c756e63-6862-46f7-9835-322e6b696361,rev?*
G04 #@! TF.SameCoordinates,Original*
G04 #@! TF.FileFunction,Profile,NP*
%FSLAX46Y46*%
G04 Gerber Fmt 4.6, Leading zero omitted, Abs format (unit mm)*
G04 Created by KiCad (PCBNEW (5.1.0)-1) date 2019-06-25 22:33:04*
%MOMM*%
%LPD*%
G04 APERTURE LIST*
%ADD10C,0.050000*%
G04 APERTURE END LIST*
D10*
X122000000Y-69500000D02*
G75*
G02X122500000Y-69000000I500000J0D01*
G01*
X122000000Y-69500000D02*
G75*
G02X121500000Y-70000000I-500000J0D01*
G01*
X134500000Y-88750000D02*
G75*
G02X134750000Y-89000000I0J-250000D01*
G01*
X134750000Y-93000000D02*
G75*
G02X134500000Y-93250000I-250000J0D01*
G01*
X131500000Y-93250000D02*
G75*
G02X131250000Y-93000000I0J250000D01*
G01*
X131250000Y-89000000D02*
G75*
G02X131500000Y-88750000I250000J0D01*
G01*
X94000000Y-70000000D02*
X121500000Y-70000000D01*
X105701480Y-157814795D02*
G75*
G02X103600001Y-156499999I-201480J2014795D01*
G01*
X219002497Y-144200001D02*
G75*
G02X217099999Y-146199999I-2002497J1D01*
G01*
X207250000Y-142750000D02*
X207250000Y-138250000D01*
X210750000Y-142750000D02*
X207250000Y-142750000D01*
X210750000Y-138250000D02*
X210750000Y-142750000D01*
X207250000Y-138250000D02*
X210750000Y-138250000D01*
X207250000Y-124750000D02*
X207250000Y-120250000D01*
X210750000Y-124750000D02*
X207250000Y-124750000D01*
X210750000Y-120250000D02*
X210750000Y-124750000D01*
X207250000Y-120250000D02*
X210750000Y-120250000D01*
X207250000Y-106750000D02*
X207250000Y-102250000D01*
X210750000Y-106750000D02*
X207250000Y-106750000D01*
X210750000Y-102250000D02*
X210750000Y-106750000D01*
X207250000Y-102250000D02*
X210750000Y-102250000D01*
X207250000Y-88750000D02*
X207250000Y-84250000D01*
X210750000Y-88750000D02*
X207250000Y-88750000D01*
X210750000Y-84250000D02*
X210750000Y-88750000D01*
X207250000Y-84250000D02*
X210750000Y-84250000D01*
X188250000Y-145750000D02*
X188250000Y-141250000D01*
X191750000Y-145750000D02*
X188250000Y-145750000D01*
X191750000Y-141250000D02*
X191750000Y-145750000D01*
X188250000Y-141250000D02*
X191750000Y-141250000D01*
X188250000Y-127750000D02*
X188250000Y-123250000D01*
X191750000Y-127750000D02*
X188250000Y-127750000D01*
X191750000Y-123250000D02*
X191750000Y-127750000D01*
X188250000Y-123250000D02*
X191750000Y-123250000D01*
X188250000Y-109750000D02*
X188250000Y-105250000D01*
X191750000Y-109750000D02*
X188250000Y-109750000D01*
X191750000Y-105250000D02*
X191750000Y-109750000D01*
X188250000Y-105250000D02*
X191750000Y-105250000D01*
X188250000Y-91750000D02*
X188250000Y-87250000D01*
X191750000Y-91750000D02*
X188250000Y-91750000D01*
X191750000Y-87250000D02*
X191750000Y-91750000D01*
X188250000Y-87250000D02*
X191750000Y-87250000D01*
X169250000Y-146750000D02*
X169250000Y-142250000D01*
X172750000Y-146750000D02*
X169250000Y-146750000D01*
X172750000Y-142250000D02*
X172750000Y-146750000D01*
X169250000Y-142250000D02*
X172750000Y-142250000D01*
X169250000Y-122750000D02*
X169250000Y-118250000D01*
X172750000Y-122750000D02*
X169250000Y-122750000D01*
X172750000Y-118250000D02*
X172750000Y-122750000D01*
X169250000Y-118250000D02*
X172750000Y-118250000D01*
X169250000Y-104750000D02*
X169250000Y-100250000D01*
X172750000Y-104750000D02*
X169250000Y-104750000D01*
X172750000Y-100250000D02*
X172750000Y-104750000D01*
X169250000Y-100250000D02*
X172750000Y-100250000D01*
X169250000Y-86750000D02*
X169250000Y-82250000D01*
X172750000Y-86750000D02*
X169250000Y-86750000D01*
X172750000Y-82250000D02*
X172750000Y-86750000D01*
X169250000Y-82250000D02*
X172750000Y-82250000D01*
X148250000Y-147250000D02*
X148250000Y-142750000D01*
X151750000Y-147250000D02*
X148250000Y-147250000D01*
X151750000Y-142750000D02*
X151750000Y-147250000D01*
X148250000Y-142750000D02*
X151750000Y-142750000D01*
X150250000Y-129250000D02*
X150250000Y-124750000D01*
X153750000Y-129250000D02*
X150250000Y-129250000D01*
X153750000Y-124750000D02*
X153750000Y-129250000D01*
X150250000Y-124750000D02*
X153750000Y-124750000D01*
X150250000Y-111250000D02*
X150250000Y-106750000D01*
X153750000Y-111250000D02*
X150250000Y-111250000D01*
X153750000Y-106750000D02*
X153750000Y-111250000D01*
X150250000Y-106750000D02*
X153750000Y-106750000D01*
X150250000Y-93250000D02*
X150250000Y-88750000D01*
X153750000Y-93250000D02*
X150250000Y-93250000D01*
X153750000Y-88750000D02*
X153750000Y-93250000D01*
X150250000Y-88750000D02*
X153750000Y-88750000D01*
X131250000Y-129250000D02*
X131250000Y-124750000D01*
X134750000Y-129250000D02*
X131250000Y-129250000D01*
X134750000Y-124750000D02*
X134750000Y-129250000D01*
X131250000Y-124750000D02*
X134750000Y-124750000D01*
X131250000Y-111250000D02*
X131250000Y-106750000D01*
X134750000Y-111250000D02*
X131250000Y-111250000D01*
X134750000Y-106750000D02*
X134750000Y-111250000D01*
X131250000Y-106750000D02*
X134750000Y-106750000D01*
X129796874Y-149288928D02*
X128708225Y-144922597D01*
X133192909Y-148442201D02*
X129796874Y-149288928D01*
X132104260Y-144075870D02*
X133192909Y-148442201D01*
X128708225Y-144922597D02*
X132104260Y-144075870D01*
X111546874Y-154038928D02*
X110458225Y-149672597D01*
X114942909Y-153192201D02*
X111546874Y-154038928D01*
X113854260Y-148825870D02*
X114942909Y-153192201D01*
X110458225Y-149672597D02*
X113854260Y-148825870D01*
X112250000Y-132710000D02*
X112250000Y-128210000D01*
X115750000Y-132710000D02*
X112250000Y-132710000D01*
X115750000Y-128210000D02*
X115750000Y-132710000D01*
X112250000Y-128210000D02*
X115750000Y-128210000D01*
X131250000Y-93000000D02*
X131250000Y-89000000D01*
X134500000Y-93250000D02*
X131500000Y-93250000D01*
X134750000Y-89000000D02*
X134750000Y-93000000D01*
X131500000Y-88750000D02*
X134500000Y-88750000D01*
X92500000Y-71500000D02*
G75*
G02X94000000Y-70000000I1500000J0D01*
G01*
X217000000Y-69000000D02*
G75*
G02X219000000Y-71000000I0J-2000000D01*
G01*
X122500000Y-69000000D02*
X217000000Y-69000000D01*
X92500000Y-114000000D02*
X92500000Y-71500000D01*
X103600001Y-156499999D02*
X92500000Y-114000000D01*
X217099999Y-146199999D02*
X105701480Y-157814795D01*
X219000000Y-71000000D02*
X219002497Y-144200001D01*
M02*
